<?xml version="1.0" encoding="utf-8"?>
<svg xmlns="http://www.w3.org/2000/svg" xmlns:xlink="http://www.w3.org/1999/xlink" width="800" height="400" viewBox="0 0 3200 1600">
<defs>
  <clipPath id="clip870">
    <rect x="0" y="0" width="3200" height="1600"/>
  </clipPath>
</defs>
<path clip-path="url(#clip870)" d="
M0 1600 L3200 1600 L3200 0 L0 0  Z
  " fill="#ffffff" fill-rule="evenodd" fill-opacity="1"/>
<defs>
  <clipPath id="clip871">
    <rect x="640" y="0" width="2241" height="1600"/>
  </clipPath>
</defs>
<path clip-path="url(#clip870)" d="
M210.177 1495.09 L3152.76 1495.09 L3152.76 47.2441 L210.177 47.2441  Z
  " fill="#ffffff" fill-rule="evenodd" fill-opacity="1"/>
<defs>
  <clipPath id="clip872">
    <rect x="210" y="47" width="2944" height="1449"/>
  </clipPath>
</defs>
<polyline clip-path="url(#clip872)" style="stroke:#000000; stroke-linecap:butt; stroke-linejoin:round; stroke-width:2; stroke-opacity:0.1; fill:none" points="
  496.581,1495.09 496.581,47.2441 
  "/>
<polyline clip-path="url(#clip872)" style="stroke:#000000; stroke-linecap:butt; stroke-linejoin:round; stroke-width:2; stroke-opacity:0.1; fill:none" points="
  1173.66,1495.09 1173.66,47.2441 
  "/>
<polyline clip-path="url(#clip872)" style="stroke:#000000; stroke-linecap:butt; stroke-linejoin:round; stroke-width:2; stroke-opacity:0.1; fill:none" points="
  1850.74,1495.09 1850.74,47.2441 
  "/>
<polyline clip-path="url(#clip872)" style="stroke:#000000; stroke-linecap:butt; stroke-linejoin:round; stroke-width:2; stroke-opacity:0.1; fill:none" points="
  2527.81,1495.09 2527.81,47.2441 
  "/>
<polyline clip-path="url(#clip870)" style="stroke:#000000; stroke-linecap:butt; stroke-linejoin:round; stroke-width:4; stroke-opacity:1; fill:none" points="
  210.177,1495.09 3152.76,1495.09 
  "/>
<polyline clip-path="url(#clip870)" style="stroke:#000000; stroke-linecap:butt; stroke-linejoin:round; stroke-width:4; stroke-opacity:1; fill:none" points="
  496.581,1495.09 496.581,1476.19 
  "/>
<polyline clip-path="url(#clip870)" style="stroke:#000000; stroke-linecap:butt; stroke-linejoin:round; stroke-width:4; stroke-opacity:1; fill:none" points="
  1173.66,1495.09 1173.66,1476.19 
  "/>
<polyline clip-path="url(#clip870)" style="stroke:#000000; stroke-linecap:butt; stroke-linejoin:round; stroke-width:4; stroke-opacity:1; fill:none" points="
  1850.74,1495.09 1850.74,1476.19 
  "/>
<polyline clip-path="url(#clip870)" style="stroke:#000000; stroke-linecap:butt; stroke-linejoin:round; stroke-width:4; stroke-opacity:1; fill:none" points="
  2527.81,1495.09 2527.81,1476.19 
  "/>
<path clip-path="url(#clip870)" d="M410.944 1559.95 L418.583 1559.95 L418.583 1533.59 L410.273 1535.25 L410.273 1530.99 L418.537 1529.33 L423.213 1529.33 L423.213 1559.95 L430.852 1559.95 L430.852 1563.89 L410.944 1563.89 L410.944 1559.95 Z" fill="#000000" fill-rule="evenodd" fill-opacity="1" /><path clip-path="url(#clip870)" d="M444.324 1559.95 L460.643 1559.95 L460.643 1563.89 L438.699 1563.89 L438.699 1559.95 Q441.361 1557.2 445.944 1552.57 Q450.551 1547.92 451.731 1546.57 Q453.977 1544.05 454.856 1542.31 Q455.759 1540.55 455.759 1538.86 Q455.759 1536.11 453.815 1534.37 Q451.893 1532.64 448.791 1532.64 Q446.592 1532.64 444.139 1533.4 Q441.708 1534.17 438.93 1535.72 L438.93 1530.99 Q441.754 1529.86 444.208 1529.28 Q446.662 1528.7 448.699 1528.7 Q454.069 1528.7 457.264 1531.39 Q460.458 1534.07 460.458 1538.56 Q460.458 1540.69 459.648 1542.61 Q458.861 1544.51 456.754 1547.11 Q456.176 1547.78 453.074 1550.99 Q449.972 1554.19 444.324 1559.95 Z" fill="#000000" fill-rule="evenodd" fill-opacity="1" /><path clip-path="url(#clip870)" d="M480.458 1547.48 Q477.125 1547.48 475.203 1549.26 Q473.305 1551.04 473.305 1554.17 Q473.305 1557.29 475.203 1559.07 Q477.125 1560.86 480.458 1560.86 Q483.791 1560.86 485.713 1559.07 Q487.634 1557.27 487.634 1554.17 Q487.634 1551.04 485.713 1549.26 Q483.814 1547.48 480.458 1547.48 M475.782 1545.49 Q472.773 1544.74 471.083 1542.68 Q469.416 1540.62 469.416 1537.66 Q469.416 1533.52 472.356 1531.11 Q475.319 1528.7 480.458 1528.7 Q485.62 1528.7 488.56 1531.11 Q491.5 1533.52 491.5 1537.66 Q491.5 1540.62 489.81 1542.68 Q488.143 1544.74 485.157 1545.49 Q488.537 1546.27 490.412 1548.56 Q492.31 1550.86 492.31 1554.17 Q492.31 1559.19 489.231 1561.87 Q486.175 1564.56 480.458 1564.56 Q474.74 1564.56 471.662 1561.87 Q468.606 1559.19 468.606 1554.17 Q468.606 1550.86 470.504 1548.56 Q472.402 1546.27 475.782 1545.49 M474.069 1538.1 Q474.069 1540.79 475.736 1542.29 Q477.426 1543.8 480.458 1543.8 Q483.467 1543.8 485.157 1542.29 Q486.87 1540.79 486.87 1538.1 Q486.87 1535.42 485.157 1533.91 Q483.467 1532.41 480.458 1532.41 Q477.426 1532.41 475.736 1533.91 Q474.069 1535.42 474.069 1538.1 Z" fill="#000000" fill-rule="evenodd" fill-opacity="1" /><path clip-path="url(#clip870)" d="M510.62 1532.41 Q507.009 1532.41 505.18 1535.97 Q503.374 1539.51 503.374 1546.64 Q503.374 1553.75 505.18 1557.31 Q507.009 1560.86 510.62 1560.86 Q514.254 1560.86 516.06 1557.31 Q517.888 1553.75 517.888 1546.64 Q517.888 1539.51 516.06 1535.97 Q514.254 1532.41 510.62 1532.41 M510.62 1528.7 Q516.43 1528.7 519.485 1533.31 Q522.564 1537.89 522.564 1546.64 Q522.564 1555.37 519.485 1559.98 Q516.43 1564.56 510.62 1564.56 Q504.81 1564.56 501.731 1559.98 Q498.675 1555.37 498.675 1546.64 Q498.675 1537.89 501.731 1533.31 Q504.81 1528.7 510.62 1528.7 Z" fill="#000000" fill-rule="evenodd" fill-opacity="1" /><path clip-path="url(#clip870)" d="M540.782 1532.41 Q537.171 1532.41 535.342 1535.97 Q533.536 1539.51 533.536 1546.64 Q533.536 1553.75 535.342 1557.31 Q537.171 1560.86 540.782 1560.86 Q544.416 1560.86 546.221 1557.31 Q548.05 1553.75 548.05 1546.64 Q548.05 1539.51 546.221 1535.97 Q544.416 1532.41 540.782 1532.41 M540.782 1528.7 Q546.592 1528.7 549.647 1533.31 Q552.726 1537.89 552.726 1546.64 Q552.726 1555.37 549.647 1559.98 Q546.592 1564.56 540.782 1564.56 Q534.972 1564.56 531.893 1559.98 Q528.837 1555.37 528.837 1546.64 Q528.837 1537.89 531.893 1533.31 Q534.972 1528.7 540.782 1528.7 Z" fill="#000000" fill-rule="evenodd" fill-opacity="1" /><path clip-path="url(#clip870)" d="M570.944 1532.41 Q567.332 1532.41 565.504 1535.97 Q563.698 1539.51 563.698 1546.64 Q563.698 1553.75 565.504 1557.31 Q567.332 1560.86 570.944 1560.86 Q574.578 1560.86 576.383 1557.31 Q578.212 1553.75 578.212 1546.64 Q578.212 1539.51 576.383 1535.97 Q574.578 1532.41 570.944 1532.41 M570.944 1528.7 Q576.754 1528.7 579.809 1533.31 Q582.888 1537.89 582.888 1546.64 Q582.888 1555.37 579.809 1559.98 Q576.754 1564.56 570.944 1564.56 Q565.133 1564.56 562.055 1559.98 Q558.999 1555.37 558.999 1546.64 Q558.999 1537.89 562.055 1533.31 Q565.133 1528.7 570.944 1528.7 Z" fill="#000000" fill-rule="evenodd" fill-opacity="1" /><path clip-path="url(#clip870)" d="M1088.02 1559.95 L1095.66 1559.95 L1095.66 1533.59 L1087.35 1535.25 L1087.35 1530.99 L1095.61 1529.33 L1100.29 1529.33 L1100.29 1559.95 L1107.93 1559.95 L1107.93 1563.89 L1088.02 1563.89 L1088.02 1559.95 Z" fill="#000000" fill-rule="evenodd" fill-opacity="1" /><path clip-path="url(#clip870)" d="M1121.4 1559.95 L1137.72 1559.95 L1137.72 1563.89 L1115.78 1563.89 L1115.78 1559.95 Q1118.44 1557.2 1123.02 1552.57 Q1127.63 1547.92 1128.81 1546.57 Q1131.05 1544.05 1131.93 1542.31 Q1132.84 1540.55 1132.84 1538.86 Q1132.84 1536.11 1130.89 1534.37 Q1128.97 1532.64 1125.87 1532.64 Q1123.67 1532.64 1121.22 1533.4 Q1118.79 1534.17 1116.01 1535.72 L1116.01 1530.99 Q1118.83 1529.86 1121.29 1529.28 Q1123.74 1528.7 1125.78 1528.7 Q1131.15 1528.7 1134.34 1531.39 Q1137.54 1534.07 1137.54 1538.56 Q1137.54 1540.69 1136.73 1542.61 Q1135.94 1544.51 1133.83 1547.11 Q1133.25 1547.78 1130.15 1550.99 Q1127.05 1554.19 1121.4 1559.95 Z" fill="#000000" fill-rule="evenodd" fill-opacity="1" /><path clip-path="url(#clip870)" d="M1147.67 1563.17 L1147.67 1558.91 Q1149.43 1559.74 1151.24 1560.18 Q1153.04 1560.62 1154.78 1560.62 Q1159.41 1560.62 1161.84 1557.52 Q1164.29 1554.4 1164.64 1548.05 Q1163.3 1550.05 1161.24 1551.11 Q1159.18 1552.17 1156.68 1552.17 Q1151.49 1552.17 1148.46 1549.05 Q1145.45 1545.9 1145.45 1540.46 Q1145.45 1535.14 1148.6 1531.92 Q1151.75 1528.7 1156.98 1528.7 Q1162.98 1528.7 1166.12 1533.31 Q1169.29 1537.89 1169.29 1546.64 Q1169.29 1554.81 1165.41 1559.7 Q1161.54 1564.56 1154.99 1564.56 Q1153.23 1564.56 1151.42 1564.21 Q1149.62 1563.86 1147.67 1563.17 M1156.98 1548.52 Q1160.13 1548.52 1161.96 1546.36 Q1163.81 1544.21 1163.81 1540.46 Q1163.81 1536.74 1161.96 1534.58 Q1160.13 1532.41 1156.98 1532.41 Q1153.83 1532.41 1151.98 1534.58 Q1150.15 1536.74 1150.15 1540.46 Q1150.15 1544.21 1151.98 1546.36 Q1153.83 1548.52 1156.98 1548.52 Z" fill="#000000" fill-rule="evenodd" fill-opacity="1" /><path clip-path="url(#clip870)" d="M1187.7 1532.41 Q1184.09 1532.41 1182.26 1535.97 Q1180.45 1539.51 1180.45 1546.64 Q1180.45 1553.75 1182.26 1557.31 Q1184.09 1560.86 1187.7 1560.86 Q1191.33 1560.86 1193.14 1557.31 Q1194.97 1553.75 1194.97 1546.64 Q1194.97 1539.51 1193.14 1535.97 Q1191.33 1532.41 1187.7 1532.41 M1187.7 1528.7 Q1193.51 1528.7 1196.56 1533.31 Q1199.64 1537.89 1199.64 1546.64 Q1199.64 1555.37 1196.56 1559.98 Q1193.51 1564.56 1187.7 1564.56 Q1181.89 1564.56 1178.81 1559.98 Q1175.75 1555.37 1175.75 1546.64 Q1175.75 1537.89 1178.81 1533.31 Q1181.89 1528.7 1187.7 1528.7 Z" fill="#000000" fill-rule="evenodd" fill-opacity="1" /><path clip-path="url(#clip870)" d="M1217.86 1532.41 Q1214.25 1532.41 1212.42 1535.97 Q1210.61 1539.51 1210.61 1546.64 Q1210.61 1553.75 1212.42 1557.31 Q1214.25 1560.86 1217.86 1560.86 Q1221.49 1560.86 1223.3 1557.31 Q1225.13 1553.75 1225.13 1546.64 Q1225.13 1539.51 1223.3 1535.97 Q1221.49 1532.41 1217.86 1532.41 M1217.86 1528.7 Q1223.67 1528.7 1226.72 1533.31 Q1229.8 1537.89 1229.8 1546.64 Q1229.8 1555.37 1226.72 1559.98 Q1223.67 1564.56 1217.86 1564.56 Q1212.05 1564.56 1208.97 1559.98 Q1205.91 1555.37 1205.91 1546.64 Q1205.91 1537.89 1208.97 1533.31 Q1212.05 1528.7 1217.86 1528.7 Z" fill="#000000" fill-rule="evenodd" fill-opacity="1" /><path clip-path="url(#clip870)" d="M1248.02 1532.41 Q1244.41 1532.41 1242.58 1535.97 Q1240.78 1539.51 1240.78 1546.64 Q1240.78 1553.75 1242.58 1557.31 Q1244.41 1560.86 1248.02 1560.86 Q1251.66 1560.86 1253.46 1557.31 Q1255.29 1553.75 1255.29 1546.64 Q1255.29 1539.51 1253.46 1535.97 Q1251.66 1532.41 1248.02 1532.41 M1248.02 1528.7 Q1253.83 1528.7 1256.89 1533.31 Q1259.97 1537.89 1259.97 1546.64 Q1259.97 1555.37 1256.89 1559.98 Q1253.83 1564.56 1248.02 1564.56 Q1242.21 1564.56 1239.13 1559.98 Q1236.08 1555.37 1236.08 1546.64 Q1236.08 1537.89 1239.13 1533.31 Q1242.21 1528.7 1248.02 1528.7 Z" fill="#000000" fill-rule="evenodd" fill-opacity="1" /><path clip-path="url(#clip870)" d="M1765.1 1559.95 L1772.74 1559.95 L1772.74 1533.59 L1764.43 1535.25 L1764.43 1530.99 L1772.69 1529.33 L1777.37 1529.33 L1777.37 1559.95 L1785.01 1559.95 L1785.01 1563.89 L1765.1 1563.89 L1765.1 1559.95 Z" fill="#000000" fill-rule="evenodd" fill-opacity="1" /><path clip-path="url(#clip870)" d="M1808.62 1545.25 Q1811.97 1545.97 1813.85 1548.24 Q1815.75 1550.51 1815.75 1553.84 Q1815.75 1558.96 1812.23 1561.76 Q1808.71 1564.56 1802.23 1564.56 Q1800.05 1564.56 1797.74 1564.12 Q1795.45 1563.7 1792.99 1562.85 L1792.99 1558.33 Q1794.94 1559.47 1797.25 1560.05 Q1799.57 1560.62 1802.09 1560.62 Q1806.49 1560.62 1808.78 1558.89 Q1811.09 1557.15 1811.09 1553.84 Q1811.09 1550.79 1808.94 1549.07 Q1806.81 1547.34 1802.99 1547.34 L1798.97 1547.34 L1798.97 1543.49 L1803.18 1543.49 Q1806.63 1543.49 1808.46 1542.13 Q1810.28 1540.74 1810.28 1538.15 Q1810.28 1535.49 1808.39 1534.07 Q1806.51 1532.64 1802.99 1532.64 Q1801.07 1532.64 1798.87 1533.05 Q1796.67 1533.47 1794.03 1534.35 L1794.03 1530.18 Q1796.7 1529.44 1799.01 1529.07 Q1801.35 1528.7 1803.41 1528.7 Q1808.73 1528.7 1811.84 1531.13 Q1814.94 1533.54 1814.94 1537.66 Q1814.94 1540.53 1813.29 1542.52 Q1811.65 1544.49 1808.62 1545.25 Z" fill="#000000" fill-rule="evenodd" fill-opacity="1" /><path clip-path="url(#clip870)" d="M1834.61 1532.41 Q1831 1532.41 1829.17 1535.97 Q1827.37 1539.51 1827.37 1546.64 Q1827.37 1553.75 1829.17 1557.31 Q1831 1560.86 1834.61 1560.86 Q1838.25 1560.86 1840.05 1557.31 Q1841.88 1553.75 1841.88 1546.64 Q1841.88 1539.51 1840.05 1535.97 Q1838.25 1532.41 1834.61 1532.41 M1834.61 1528.7 Q1840.42 1528.7 1843.48 1533.31 Q1846.56 1537.89 1846.56 1546.64 Q1846.56 1555.37 1843.48 1559.98 Q1840.42 1564.56 1834.61 1564.56 Q1828.8 1564.56 1825.72 1559.98 Q1822.67 1555.37 1822.67 1546.64 Q1822.67 1537.89 1825.72 1533.31 Q1828.8 1528.7 1834.61 1528.7 Z" fill="#000000" fill-rule="evenodd" fill-opacity="1" /><path clip-path="url(#clip870)" d="M1864.77 1532.41 Q1861.16 1532.41 1859.34 1535.97 Q1857.53 1539.51 1857.53 1546.64 Q1857.53 1553.75 1859.34 1557.31 Q1861.16 1560.86 1864.77 1560.86 Q1868.41 1560.86 1870.21 1557.31 Q1872.04 1553.75 1872.04 1546.64 Q1872.04 1539.51 1870.21 1535.97 Q1868.41 1532.41 1864.77 1532.41 M1864.77 1528.7 Q1870.59 1528.7 1873.64 1533.31 Q1876.72 1537.89 1876.72 1546.64 Q1876.72 1555.37 1873.64 1559.98 Q1870.59 1564.56 1864.77 1564.56 Q1858.96 1564.56 1855.89 1559.98 Q1852.83 1555.37 1852.83 1546.64 Q1852.83 1537.89 1855.89 1533.31 Q1858.96 1528.7 1864.77 1528.7 Z" fill="#000000" fill-rule="evenodd" fill-opacity="1" /><path clip-path="url(#clip870)" d="M1894.94 1532.41 Q1891.33 1532.41 1889.5 1535.97 Q1887.69 1539.51 1887.69 1546.64 Q1887.69 1553.75 1889.5 1557.31 Q1891.33 1560.86 1894.94 1560.86 Q1898.57 1560.86 1900.38 1557.31 Q1902.21 1553.75 1902.21 1546.64 Q1902.21 1539.51 1900.38 1535.97 Q1898.57 1532.41 1894.94 1532.41 M1894.94 1528.7 Q1900.75 1528.7 1903.8 1533.31 Q1906.88 1537.89 1906.88 1546.64 Q1906.88 1555.37 1903.8 1559.98 Q1900.75 1564.56 1894.94 1564.56 Q1889.13 1564.56 1886.05 1559.98 Q1882.99 1555.37 1882.99 1546.64 Q1882.99 1537.89 1886.05 1533.31 Q1889.13 1528.7 1894.94 1528.7 Z" fill="#000000" fill-rule="evenodd" fill-opacity="1" /><path clip-path="url(#clip870)" d="M1925.1 1532.41 Q1921.49 1532.41 1919.66 1535.97 Q1917.85 1539.51 1917.85 1546.64 Q1917.85 1553.75 1919.66 1557.31 Q1921.49 1560.86 1925.1 1560.86 Q1928.73 1560.86 1930.54 1557.31 Q1932.37 1553.75 1932.37 1546.64 Q1932.37 1539.51 1930.54 1535.97 Q1928.73 1532.41 1925.1 1532.41 M1925.1 1528.7 Q1930.91 1528.7 1933.96 1533.31 Q1937.04 1537.89 1937.04 1546.64 Q1937.04 1555.37 1933.96 1559.98 Q1930.91 1564.56 1925.1 1564.56 Q1919.29 1564.56 1916.21 1559.98 Q1913.15 1555.37 1913.15 1546.64 Q1913.15 1537.89 1916.21 1533.31 Q1919.29 1528.7 1925.1 1528.7 Z" fill="#000000" fill-rule="evenodd" fill-opacity="1" /><path clip-path="url(#clip870)" d="M2442.18 1559.95 L2449.82 1559.95 L2449.82 1533.59 L2441.51 1535.25 L2441.51 1530.99 L2449.77 1529.33 L2454.45 1529.33 L2454.45 1559.95 L2462.08 1559.95 L2462.08 1563.89 L2442.18 1563.89 L2442.18 1559.95 Z" fill="#000000" fill-rule="evenodd" fill-opacity="1" /><path clip-path="url(#clip870)" d="M2485.7 1545.25 Q2489.05 1545.97 2490.93 1548.24 Q2492.83 1550.51 2492.83 1553.84 Q2492.83 1558.96 2489.31 1561.76 Q2485.79 1564.56 2479.31 1564.56 Q2477.13 1564.56 2474.82 1564.12 Q2472.52 1563.7 2470.07 1562.85 L2470.07 1558.33 Q2472.01 1559.47 2474.33 1560.05 Q2476.64 1560.62 2479.17 1560.62 Q2483.57 1560.62 2485.86 1558.89 Q2488.17 1557.15 2488.17 1553.84 Q2488.17 1550.79 2486.02 1549.07 Q2483.89 1547.34 2480.07 1547.34 L2476.04 1547.34 L2476.04 1543.49 L2480.26 1543.49 Q2483.7 1543.49 2485.53 1542.13 Q2487.36 1540.74 2487.36 1538.15 Q2487.36 1535.49 2485.46 1534.07 Q2483.59 1532.64 2480.07 1532.64 Q2478.15 1532.64 2475.95 1533.05 Q2473.75 1533.47 2471.11 1534.35 L2471.11 1530.18 Q2473.77 1529.44 2476.09 1529.07 Q2478.43 1528.7 2480.49 1528.7 Q2485.81 1528.7 2488.91 1531.13 Q2492.01 1533.54 2492.01 1537.66 Q2492.01 1540.53 2490.37 1542.52 Q2488.73 1544.49 2485.7 1545.25 Z" fill="#000000" fill-rule="evenodd" fill-opacity="1" /><path clip-path="url(#clip870)" d="M2502.5 1559.95 L2510.14 1559.95 L2510.14 1533.59 L2501.83 1535.25 L2501.83 1530.99 L2510.09 1529.33 L2514.77 1529.33 L2514.77 1559.95 L2522.41 1559.95 L2522.41 1563.89 L2502.5 1563.89 L2502.5 1559.95 Z" fill="#000000" fill-rule="evenodd" fill-opacity="1" /><path clip-path="url(#clip870)" d="M2541.85 1532.41 Q2538.24 1532.41 2536.41 1535.97 Q2534.61 1539.51 2534.61 1546.64 Q2534.61 1553.75 2536.41 1557.31 Q2538.24 1560.86 2541.85 1560.86 Q2545.49 1560.86 2547.29 1557.31 Q2549.12 1553.75 2549.12 1546.64 Q2549.12 1539.51 2547.29 1535.97 Q2545.49 1532.41 2541.85 1532.41 M2541.85 1528.7 Q2547.66 1528.7 2550.72 1533.31 Q2553.8 1537.89 2553.8 1546.64 Q2553.8 1555.37 2550.72 1559.98 Q2547.66 1564.56 2541.85 1564.56 Q2536.04 1564.56 2532.96 1559.98 Q2529.91 1555.37 2529.91 1546.64 Q2529.91 1537.89 2532.96 1533.31 Q2536.04 1528.7 2541.85 1528.7 Z" fill="#000000" fill-rule="evenodd" fill-opacity="1" /><path clip-path="url(#clip870)" d="M2572.01 1532.41 Q2568.4 1532.41 2566.57 1535.97 Q2564.77 1539.51 2564.77 1546.64 Q2564.77 1553.75 2566.57 1557.31 Q2568.4 1560.86 2572.01 1560.86 Q2575.65 1560.86 2577.45 1557.31 Q2579.28 1553.75 2579.28 1546.64 Q2579.28 1539.51 2577.45 1535.97 Q2575.65 1532.41 2572.01 1532.41 M2572.01 1528.7 Q2577.82 1528.7 2580.88 1533.31 Q2583.96 1537.89 2583.96 1546.64 Q2583.96 1555.37 2580.88 1559.98 Q2577.82 1564.56 2572.01 1564.56 Q2566.2 1564.56 2563.13 1559.98 Q2560.07 1555.37 2560.07 1546.64 Q2560.07 1537.89 2563.13 1533.31 Q2566.2 1528.7 2572.01 1528.7 Z" fill="#000000" fill-rule="evenodd" fill-opacity="1" /><path clip-path="url(#clip870)" d="M2602.18 1532.41 Q2598.57 1532.41 2596.74 1535.97 Q2594.93 1539.51 2594.93 1546.64 Q2594.93 1553.75 2596.74 1557.31 Q2598.57 1560.86 2602.18 1560.86 Q2605.81 1560.86 2607.62 1557.31 Q2609.44 1553.75 2609.44 1546.64 Q2609.44 1539.51 2607.62 1535.97 Q2605.81 1532.41 2602.18 1532.41 M2602.18 1528.7 Q2607.99 1528.7 2611.04 1533.31 Q2614.12 1537.89 2614.12 1546.64 Q2614.12 1555.37 2611.04 1559.98 Q2607.99 1564.56 2602.18 1564.56 Q2596.37 1564.56 2593.29 1559.98 Q2590.23 1555.37 2590.23 1546.64 Q2590.23 1537.89 2593.29 1533.31 Q2596.37 1528.7 2602.18 1528.7 Z" fill="#000000" fill-rule="evenodd" fill-opacity="1" /><polyline clip-path="url(#clip872)" style="stroke:#000000; stroke-linecap:butt; stroke-linejoin:round; stroke-width:2; stroke-opacity:0.1; fill:none" points="
  210.177,1454.11 3152.76,1454.11 
  "/>
<polyline clip-path="url(#clip872)" style="stroke:#000000; stroke-linecap:butt; stroke-linejoin:round; stroke-width:2; stroke-opacity:0.1; fill:none" points="
  210.177,1148.2 3152.76,1148.2 
  "/>
<polyline clip-path="url(#clip872)" style="stroke:#000000; stroke-linecap:butt; stroke-linejoin:round; stroke-width:2; stroke-opacity:0.1; fill:none" points="
  210.177,842.29 3152.76,842.29 
  "/>
<polyline clip-path="url(#clip872)" style="stroke:#000000; stroke-linecap:butt; stroke-linejoin:round; stroke-width:2; stroke-opacity:0.1; fill:none" points="
  210.177,536.38 3152.76,536.38 
  "/>
<polyline clip-path="url(#clip872)" style="stroke:#000000; stroke-linecap:butt; stroke-linejoin:round; stroke-width:2; stroke-opacity:0.1; fill:none" points="
  210.177,230.469 3152.76,230.469 
  "/>
<polyline clip-path="url(#clip870)" style="stroke:#000000; stroke-linecap:butt; stroke-linejoin:round; stroke-width:4; stroke-opacity:1; fill:none" points="
  210.177,1495.09 210.177,47.2441 
  "/>
<polyline clip-path="url(#clip870)" style="stroke:#000000; stroke-linecap:butt; stroke-linejoin:round; stroke-width:4; stroke-opacity:1; fill:none" points="
  210.177,1454.11 229.074,1454.11 
  "/>
<polyline clip-path="url(#clip870)" style="stroke:#000000; stroke-linecap:butt; stroke-linejoin:round; stroke-width:4; stroke-opacity:1; fill:none" points="
  210.177,1148.2 229.074,1148.2 
  "/>
<polyline clip-path="url(#clip870)" style="stroke:#000000; stroke-linecap:butt; stroke-linejoin:round; stroke-width:4; stroke-opacity:1; fill:none" points="
  210.177,842.29 229.074,842.29 
  "/>
<polyline clip-path="url(#clip870)" style="stroke:#000000; stroke-linecap:butt; stroke-linejoin:round; stroke-width:4; stroke-opacity:1; fill:none" points="
  210.177,536.38 229.074,536.38 
  "/>
<polyline clip-path="url(#clip870)" style="stroke:#000000; stroke-linecap:butt; stroke-linejoin:round; stroke-width:4; stroke-opacity:1; fill:none" points="
  210.177,230.469 229.074,230.469 
  "/>
<path clip-path="url(#clip870)" d="M150.232 1439.91 Q146.621 1439.91 144.793 1443.47 Q142.987 1447.02 142.987 1454.15 Q142.987 1461.25 144.793 1464.82 Q146.621 1468.36 150.232 1468.36 Q153.867 1468.36 155.672 1464.82 Q157.501 1461.25 157.501 1454.15 Q157.501 1447.02 155.672 1443.47 Q153.867 1439.91 150.232 1439.91 M150.232 1436.21 Q156.042 1436.21 159.098 1440.81 Q162.177 1445.4 162.177 1454.15 Q162.177 1462.87 159.098 1467.48 Q156.042 1472.06 150.232 1472.06 Q144.422 1472.06 141.343 1467.48 Q138.288 1462.87 138.288 1454.15 Q138.288 1445.4 141.343 1440.81 Q144.422 1436.21 150.232 1436.21 Z" fill="#000000" fill-rule="evenodd" fill-opacity="1" /><path clip-path="url(#clip870)" d="M50.5569 1161.55 L58.1958 1161.55 L58.1958 1135.18 L49.8856 1136.85 L49.8856 1132.59 L58.1495 1130.92 L62.8254 1130.92 L62.8254 1161.55 L70.4642 1161.55 L70.4642 1165.48 L50.5569 1165.48 L50.5569 1161.55 Z" fill="#000000" fill-rule="evenodd" fill-opacity="1" /><path clip-path="url(#clip870)" d="M89.9086 1134 Q86.2975 1134 84.4688 1137.56 Q82.6632 1141.11 82.6632 1148.24 Q82.6632 1155.34 84.4688 1158.91 Q86.2975 1162.45 89.9086 1162.45 Q93.5428 1162.45 95.3483 1158.91 Q97.177 1155.34 97.177 1148.24 Q97.177 1141.11 95.3483 1137.56 Q93.5428 1134 89.9086 1134 M89.9086 1130.3 Q95.7187 1130.3 98.7743 1134.9 Q101.853 1139.49 101.853 1148.24 Q101.853 1156.96 98.7743 1161.57 Q95.7187 1166.15 89.9086 1166.15 Q84.0984 1166.15 81.0197 1161.57 Q77.9642 1156.96 77.9642 1148.24 Q77.9642 1139.49 81.0197 1134.9 Q84.0984 1130.3 89.9086 1130.3 Z" fill="#000000" fill-rule="evenodd" fill-opacity="1" /><path clip-path="url(#clip870)" d="M120.07 1134 Q116.459 1134 114.631 1137.56 Q112.825 1141.11 112.825 1148.24 Q112.825 1155.34 114.631 1158.91 Q116.459 1162.45 120.07 1162.45 Q123.705 1162.45 125.51 1158.91 Q127.339 1155.34 127.339 1148.24 Q127.339 1141.11 125.51 1137.56 Q123.705 1134 120.07 1134 M120.07 1130.3 Q125.881 1130.3 128.936 1134.9 Q132.015 1139.49 132.015 1148.24 Q132.015 1156.96 128.936 1161.57 Q125.881 1166.15 120.07 1166.15 Q114.26 1166.15 111.182 1161.57 Q108.126 1156.96 108.126 1148.24 Q108.126 1139.49 111.182 1134.9 Q114.26 1130.3 120.07 1130.3 Z" fill="#000000" fill-rule="evenodd" fill-opacity="1" /><path clip-path="url(#clip870)" d="M150.232 1134 Q146.621 1134 144.793 1137.56 Q142.987 1141.11 142.987 1148.24 Q142.987 1155.34 144.793 1158.91 Q146.621 1162.45 150.232 1162.45 Q153.867 1162.45 155.672 1158.91 Q157.501 1155.34 157.501 1148.24 Q157.501 1141.11 155.672 1137.56 Q153.867 1134 150.232 1134 M150.232 1130.3 Q156.042 1130.3 159.098 1134.9 Q162.177 1139.49 162.177 1148.24 Q162.177 1156.96 159.098 1161.57 Q156.042 1166.15 150.232 1166.15 Q144.422 1166.15 141.343 1161.57 Q138.288 1156.96 138.288 1148.24 Q138.288 1139.49 141.343 1134.9 Q144.422 1130.3 150.232 1130.3 Z" fill="#000000" fill-rule="evenodd" fill-opacity="1" /><path clip-path="url(#clip870)" d="M53.7745 855.635 L70.0939 855.635 L70.0939 859.57 L48.1495 859.57 L48.1495 855.635 Q50.8115 852.88 55.3949 848.251 Q60.0013 843.598 61.1819 842.255 Q63.4272 839.732 64.3068 837.996 Q65.2096 836.237 65.2096 834.547 Q65.2096 831.793 63.2652 830.056 Q61.3439 828.32 58.2421 828.32 Q56.043 828.32 53.5893 829.084 Q51.1588 829.848 48.381 831.399 L48.381 826.677 Q51.2051 825.543 53.6588 824.964 Q56.1124 824.385 58.1495 824.385 Q63.5198 824.385 66.7142 827.07 Q69.9087 829.756 69.9087 834.246 Q69.9087 836.376 69.0985 838.297 Q68.3115 840.195 66.205 842.788 Q65.6263 843.459 62.5245 846.677 Q59.4226 849.871 53.7745 855.635 Z" fill="#000000" fill-rule="evenodd" fill-opacity="1" /><path clip-path="url(#clip870)" d="M89.9086 828.089 Q86.2975 828.089 84.4688 831.654 Q82.6632 835.195 82.6632 842.325 Q82.6632 849.431 84.4688 852.996 Q86.2975 856.538 89.9086 856.538 Q93.5428 856.538 95.3483 852.996 Q97.177 849.431 97.177 842.325 Q97.177 835.195 95.3483 831.654 Q93.5428 828.089 89.9086 828.089 M89.9086 824.385 Q95.7187 824.385 98.7743 828.992 Q101.853 833.575 101.853 842.325 Q101.853 851.052 98.7743 855.658 Q95.7187 860.241 89.9086 860.241 Q84.0984 860.241 81.0197 855.658 Q77.9642 851.052 77.9642 842.325 Q77.9642 833.575 81.0197 828.992 Q84.0984 824.385 89.9086 824.385 Z" fill="#000000" fill-rule="evenodd" fill-opacity="1" /><path clip-path="url(#clip870)" d="M120.07 828.089 Q116.459 828.089 114.631 831.654 Q112.825 835.195 112.825 842.325 Q112.825 849.431 114.631 852.996 Q116.459 856.538 120.07 856.538 Q123.705 856.538 125.51 852.996 Q127.339 849.431 127.339 842.325 Q127.339 835.195 125.51 831.654 Q123.705 828.089 120.07 828.089 M120.07 824.385 Q125.881 824.385 128.936 828.992 Q132.015 833.575 132.015 842.325 Q132.015 851.052 128.936 855.658 Q125.881 860.241 120.07 860.241 Q114.26 860.241 111.182 855.658 Q108.126 851.052 108.126 842.325 Q108.126 833.575 111.182 828.992 Q114.26 824.385 120.07 824.385 Z" fill="#000000" fill-rule="evenodd" fill-opacity="1" /><path clip-path="url(#clip870)" d="M150.232 828.089 Q146.621 828.089 144.793 831.654 Q142.987 835.195 142.987 842.325 Q142.987 849.431 144.793 852.996 Q146.621 856.538 150.232 856.538 Q153.867 856.538 155.672 852.996 Q157.501 849.431 157.501 842.325 Q157.501 835.195 155.672 831.654 Q153.867 828.089 150.232 828.089 M150.232 824.385 Q156.042 824.385 159.098 828.992 Q162.177 833.575 162.177 842.325 Q162.177 851.052 159.098 855.658 Q156.042 860.241 150.232 860.241 Q144.422 860.241 141.343 855.658 Q138.288 851.052 138.288 842.325 Q138.288 833.575 141.343 828.992 Q144.422 824.385 150.232 824.385 Z" fill="#000000" fill-rule="evenodd" fill-opacity="1" /><path clip-path="url(#clip870)" d="M63.9133 535.026 Q67.2698 535.743 69.1448 538.012 Q71.0429 540.28 71.0429 543.613 Q71.0429 548.729 67.5244 551.53 Q64.0059 554.331 57.5245 554.331 Q55.3486 554.331 53.0338 553.891 Q50.7421 553.474 48.2884 552.618 L48.2884 548.104 Q50.2328 549.238 52.5477 549.817 Q54.8625 550.396 57.3856 550.396 Q61.7837 550.396 64.0754 548.66 Q66.3902 546.924 66.3902 543.613 Q66.3902 540.558 64.2374 538.845 Q62.1078 537.109 58.2884 537.109 L54.2606 537.109 L54.2606 533.266 L58.4735 533.266 Q61.9226 533.266 63.7513 531.901 Q65.58 530.512 65.58 527.919 Q65.58 525.257 63.6819 523.845 Q61.8069 522.41 58.2884 522.41 Q56.3671 522.41 54.168 522.827 Q51.969 523.243 49.3301 524.123 L49.3301 519.956 Q51.9921 519.215 54.3069 518.845 Q56.6449 518.475 58.705 518.475 Q64.0291 518.475 67.1309 520.905 Q70.2327 523.313 70.2327 527.433 Q70.2327 530.303 68.5892 532.294 Q66.9457 534.262 63.9133 535.026 Z" fill="#000000" fill-rule="evenodd" fill-opacity="1" /><path clip-path="url(#clip870)" d="M89.9086 522.178 Q86.2975 522.178 84.4688 525.743 Q82.6632 529.285 82.6632 536.414 Q82.6632 543.521 84.4688 547.086 Q86.2975 550.627 89.9086 550.627 Q93.5428 550.627 95.3483 547.086 Q97.177 543.521 97.177 536.414 Q97.177 529.285 95.3483 525.743 Q93.5428 522.178 89.9086 522.178 M89.9086 518.475 Q95.7187 518.475 98.7743 523.081 Q101.853 527.664 101.853 536.414 Q101.853 545.141 98.7743 549.748 Q95.7187 554.331 89.9086 554.331 Q84.0984 554.331 81.0197 549.748 Q77.9642 545.141 77.9642 536.414 Q77.9642 527.664 81.0197 523.081 Q84.0984 518.475 89.9086 518.475 Z" fill="#000000" fill-rule="evenodd" fill-opacity="1" /><path clip-path="url(#clip870)" d="M120.07 522.178 Q116.459 522.178 114.631 525.743 Q112.825 529.285 112.825 536.414 Q112.825 543.521 114.631 547.086 Q116.459 550.627 120.07 550.627 Q123.705 550.627 125.51 547.086 Q127.339 543.521 127.339 536.414 Q127.339 529.285 125.51 525.743 Q123.705 522.178 120.07 522.178 M120.07 518.475 Q125.881 518.475 128.936 523.081 Q132.015 527.664 132.015 536.414 Q132.015 545.141 128.936 549.748 Q125.881 554.331 120.07 554.331 Q114.26 554.331 111.182 549.748 Q108.126 545.141 108.126 536.414 Q108.126 527.664 111.182 523.081 Q114.26 518.475 120.07 518.475 Z" fill="#000000" fill-rule="evenodd" fill-opacity="1" /><path clip-path="url(#clip870)" d="M150.232 522.178 Q146.621 522.178 144.793 525.743 Q142.987 529.285 142.987 536.414 Q142.987 543.521 144.793 547.086 Q146.621 550.627 150.232 550.627 Q153.867 550.627 155.672 547.086 Q157.501 543.521 157.501 536.414 Q157.501 529.285 155.672 525.743 Q153.867 522.178 150.232 522.178 M150.232 518.475 Q156.042 518.475 159.098 523.081 Q162.177 527.664 162.177 536.414 Q162.177 545.141 159.098 549.748 Q156.042 554.331 150.232 554.331 Q144.422 554.331 141.343 549.748 Q138.288 545.141 138.288 536.414 Q138.288 527.664 141.343 523.081 Q144.422 518.475 150.232 518.475 Z" fill="#000000" fill-rule="evenodd" fill-opacity="1" /><path clip-path="url(#clip870)" d="M62.5939 217.263 L50.7884 235.712 L62.5939 235.712 L62.5939 217.263 M61.367 213.189 L67.2466 213.189 L67.2466 235.712 L72.1772 235.712 L72.1772 239.601 L67.2466 239.601 L67.2466 247.749 L62.5939 247.749 L62.5939 239.601 L46.9921 239.601 L46.9921 235.087 L61.367 213.189 Z" fill="#000000" fill-rule="evenodd" fill-opacity="1" /><path clip-path="url(#clip870)" d="M89.9086 216.268 Q86.2975 216.268 84.4688 219.833 Q82.6632 223.374 82.6632 230.504 Q82.6632 237.61 84.4688 241.175 Q86.2975 244.717 89.9086 244.717 Q93.5428 244.717 95.3483 241.175 Q97.177 237.61 97.177 230.504 Q97.177 223.374 95.3483 219.833 Q93.5428 216.268 89.9086 216.268 M89.9086 212.564 Q95.7187 212.564 98.7743 217.171 Q101.853 221.754 101.853 230.504 Q101.853 239.231 98.7743 243.837 Q95.7187 248.42 89.9086 248.42 Q84.0984 248.42 81.0197 243.837 Q77.9642 239.231 77.9642 230.504 Q77.9642 221.754 81.0197 217.171 Q84.0984 212.564 89.9086 212.564 Z" fill="#000000" fill-rule="evenodd" fill-opacity="1" /><path clip-path="url(#clip870)" d="M120.07 216.268 Q116.459 216.268 114.631 219.833 Q112.825 223.374 112.825 230.504 Q112.825 237.61 114.631 241.175 Q116.459 244.717 120.07 244.717 Q123.705 244.717 125.51 241.175 Q127.339 237.61 127.339 230.504 Q127.339 223.374 125.51 219.833 Q123.705 216.268 120.07 216.268 M120.07 212.564 Q125.881 212.564 128.936 217.171 Q132.015 221.754 132.015 230.504 Q132.015 239.231 128.936 243.837 Q125.881 248.42 120.07 248.42 Q114.26 248.42 111.182 243.837 Q108.126 239.231 108.126 230.504 Q108.126 221.754 111.182 217.171 Q114.26 212.564 120.07 212.564 Z" fill="#000000" fill-rule="evenodd" fill-opacity="1" /><path clip-path="url(#clip870)" d="M150.232 216.268 Q146.621 216.268 144.793 219.833 Q142.987 223.374 142.987 230.504 Q142.987 237.61 144.793 241.175 Q146.621 244.717 150.232 244.717 Q153.867 244.717 155.672 241.175 Q157.501 237.61 157.501 230.504 Q157.501 223.374 155.672 219.833 Q153.867 216.268 150.232 216.268 M150.232 212.564 Q156.042 212.564 159.098 217.171 Q162.177 221.754 162.177 230.504 Q162.177 239.231 159.098 243.837 Q156.042 248.42 150.232 248.42 Q144.422 248.42 141.343 243.837 Q138.288 239.231 138.288 230.504 Q138.288 221.754 141.343 217.171 Q144.422 212.564 150.232 212.564 Z" fill="#000000" fill-rule="evenodd" fill-opacity="1" /><polyline clip-path="url(#clip872)" style="stroke:#009af9; stroke-linecap:butt; stroke-linejoin:round; stroke-width:8; stroke-opacity:1; fill:none" points="
  293.457,1454.11 293.457,1417.71 361.165,1417.71 361.165,1419.85 428.873,1419.85 428.873,1416.18 496.581,1416.18 496.581,1418.63 564.288,1418.63 564.288,1421.68 
  631.996,1421.68 631.996,1420.46 699.704,1420.46 699.704,1414.34 767.412,1414.34 767.412,1414.04 835.119,1414.04 835.119,1414.95 902.827,1414.95 902.827,1417.71 
  970.535,1417.71 970.535,1411.59 1038.24,1411.59 1038.24,1408.22 1105.95,1408.22 1105.95,1410.37 1173.66,1410.37 1173.66,1410.98 1241.37,1410.98 1241.37,1402.41 
  1309.07,1402.41 1309.07,1388.65 1376.78,1388.65 1376.78,1346.12 1444.49,1346.12 1444.49,1128.62 1512.2,1128.62 1512.2,737.669 1579.9,737.669 1579.9,221.292 
  1647.61,221.292 1647.61,88.2208 1715.32,88.2208 1715.32,444.912 1783.03,444.912 1783.03,962.819 1850.74,962.819 1850.74,1294.73 1918.44,1294.73 1918.44,1410.98 
  1986.15,1410.98 1986.15,1430.86 2053.86,1430.86 2053.86,1426.58 2121.57,1426.58 2121.57,1422.6 2189.27,1422.6 2189.27,1424.44 2256.98,1424.44 2256.98,1427.5 
  2324.69,1427.5 2324.69,1435.45 2392.4,1435.45 2392.4,1431.78 2460.11,1431.78 2460.11,1427.5 2527.81,1427.5 2527.81,1425.97 2595.52,1425.97 2595.52,1425.36 
  2663.23,1425.36 2663.23,1427.5 2730.94,1427.5 2730.94,1431.47 2798.64,1431.47 2798.64,1428.11 2866.35,1428.11 2866.35,1426.89 2934.06,1426.89 2934.06,1432.7 
  3001.77,1432.7 3001.77,1430.56 3069.48,1430.56 3069.48,1454.11 
  "/>
<path clip-path="url(#clip870)" d="
M2675.29 199.186 L3054.67 199.186 L3054.67 95.5056 L2675.29 95.5056  Z
  " fill="#ffffff" fill-rule="evenodd" fill-opacity="1"/>
<polyline clip-path="url(#clip870)" style="stroke:#000000; stroke-linecap:butt; stroke-linejoin:round; stroke-width:4; stroke-opacity:1; fill:none" points="
  2675.29,199.186 3054.67,199.186 3054.67,95.5056 2675.29,95.5056 2675.29,199.186 
  "/>
<polyline clip-path="url(#clip870)" style="stroke:#009af9; stroke-linecap:butt; stroke-linejoin:round; stroke-width:4; stroke-opacity:1; fill:none" points="
  2707.98,147.346 2904.15,147.346 
  "/>
<path clip-path="url(#clip870)" d="M2950.69 167.033 Q2948.89 171.663 2947.17 173.075 Q2945.46 174.487 2942.59 174.487 L2939.19 174.487 L2939.19 170.922 L2941.69 170.922 Q2943.45 170.922 2944.42 170.088 Q2945.39 169.255 2946.57 166.153 L2947.34 164.209 L2936.85 138.7 L2941.36 138.7 L2949.46 158.977 L2957.57 138.7 L2962.08 138.7 L2950.69 167.033 Z" fill="#000000" fill-rule="evenodd" fill-opacity="1" /><path clip-path="url(#clip870)" d="M2969.37 160.69 L2977.01 160.69 L2977.01 134.325 L2968.7 135.991 L2968.7 131.732 L2976.96 130.066 L2981.64 130.066 L2981.64 160.69 L2989.28 160.69 L2989.28 164.626 L2969.37 164.626 L2969.37 160.69 Z" fill="#000000" fill-rule="evenodd" fill-opacity="1" /></svg>
