<?xml version="1.0" encoding="utf-8"?>
<svg xmlns="http://www.w3.org/2000/svg" xmlns:xlink="http://www.w3.org/1999/xlink" width="800" height="400" viewBox="0 0 3200 1600">
<defs>
  <clipPath id="clip280">
    <rect x="0" y="0" width="3200" height="1600"/>
  </clipPath>
</defs>
<path clip-path="url(#clip280)" d="
M0 1600 L3200 1600 L3200 0 L0 0  Z
  " fill="#ffffff" fill-rule="evenodd" fill-opacity="1"/>
<defs>
  <clipPath id="clip281">
    <rect x="640" y="0" width="2241" height="1600"/>
  </clipPath>
</defs>
<path clip-path="url(#clip280)" d="
M210.177 1495.09 L3152.76 1495.09 L3152.76 47.2441 L210.177 47.2441  Z
  " fill="#ffffff" fill-rule="evenodd" fill-opacity="1"/>
<defs>
  <clipPath id="clip282">
    <rect x="210" y="47" width="2944" height="1449"/>
  </clipPath>
</defs>
<polyline clip-path="url(#clip282)" style="stroke:#000000; stroke-linecap:butt; stroke-linejoin:round; stroke-width:2; stroke-opacity:0.1; fill:none" points="
  496.581,1495.09 496.581,47.2441 
  "/>
<polyline clip-path="url(#clip282)" style="stroke:#000000; stroke-linecap:butt; stroke-linejoin:round; stroke-width:2; stroke-opacity:0.1; fill:none" points="
  1173.66,1495.09 1173.66,47.2441 
  "/>
<polyline clip-path="url(#clip282)" style="stroke:#000000; stroke-linecap:butt; stroke-linejoin:round; stroke-width:2; stroke-opacity:0.1; fill:none" points="
  1850.74,1495.09 1850.74,47.2441 
  "/>
<polyline clip-path="url(#clip282)" style="stroke:#000000; stroke-linecap:butt; stroke-linejoin:round; stroke-width:2; stroke-opacity:0.1; fill:none" points="
  2527.81,1495.09 2527.81,47.2441 
  "/>
<polyline clip-path="url(#clip280)" style="stroke:#000000; stroke-linecap:butt; stroke-linejoin:round; stroke-width:4; stroke-opacity:1; fill:none" points="
  210.177,1495.09 3152.76,1495.09 
  "/>
<polyline clip-path="url(#clip280)" style="stroke:#000000; stroke-linecap:butt; stroke-linejoin:round; stroke-width:4; stroke-opacity:1; fill:none" points="
  496.581,1495.09 496.581,1476.19 
  "/>
<polyline clip-path="url(#clip280)" style="stroke:#000000; stroke-linecap:butt; stroke-linejoin:round; stroke-width:4; stroke-opacity:1; fill:none" points="
  1173.66,1495.09 1173.66,1476.19 
  "/>
<polyline clip-path="url(#clip280)" style="stroke:#000000; stroke-linecap:butt; stroke-linejoin:round; stroke-width:4; stroke-opacity:1; fill:none" points="
  1850.74,1495.09 1850.74,1476.19 
  "/>
<polyline clip-path="url(#clip280)" style="stroke:#000000; stroke-linecap:butt; stroke-linejoin:round; stroke-width:4; stroke-opacity:1; fill:none" points="
  2527.81,1495.09 2527.81,1476.19 
  "/>
<path clip-path="url(#clip280)" d="M410.944 1559.95 L418.583 1559.95 L418.583 1533.59 L410.273 1535.25 L410.273 1530.99 L418.537 1529.33 L423.213 1529.33 L423.213 1559.95 L430.852 1559.95 L430.852 1563.89 L410.944 1563.89 L410.944 1559.95 Z" fill="#000000" fill-rule="evenodd" fill-opacity="1" /><path clip-path="url(#clip280)" d="M444.324 1559.95 L460.643 1559.95 L460.643 1563.89 L438.699 1563.89 L438.699 1559.95 Q441.361 1557.2 445.944 1552.57 Q450.551 1547.92 451.731 1546.57 Q453.977 1544.05 454.856 1542.31 Q455.759 1540.55 455.759 1538.86 Q455.759 1536.11 453.815 1534.37 Q451.893 1532.64 448.791 1532.64 Q446.592 1532.64 444.139 1533.4 Q441.708 1534.17 438.93 1535.72 L438.93 1530.99 Q441.754 1529.86 444.208 1529.28 Q446.662 1528.7 448.699 1528.7 Q454.069 1528.7 457.264 1531.39 Q460.458 1534.07 460.458 1538.56 Q460.458 1540.69 459.648 1542.61 Q458.861 1544.51 456.754 1547.11 Q456.176 1547.78 453.074 1550.99 Q449.972 1554.19 444.324 1559.95 Z" fill="#000000" fill-rule="evenodd" fill-opacity="1" /><path clip-path="url(#clip280)" d="M480.458 1547.48 Q477.125 1547.48 475.203 1549.26 Q473.305 1551.04 473.305 1554.17 Q473.305 1557.29 475.203 1559.07 Q477.125 1560.86 480.458 1560.86 Q483.791 1560.86 485.713 1559.07 Q487.634 1557.27 487.634 1554.17 Q487.634 1551.04 485.713 1549.26 Q483.814 1547.48 480.458 1547.48 M475.782 1545.49 Q472.773 1544.74 471.083 1542.68 Q469.416 1540.62 469.416 1537.66 Q469.416 1533.52 472.356 1531.11 Q475.319 1528.7 480.458 1528.7 Q485.62 1528.7 488.56 1531.11 Q491.5 1533.52 491.5 1537.66 Q491.5 1540.62 489.81 1542.68 Q488.143 1544.74 485.157 1545.49 Q488.537 1546.27 490.412 1548.56 Q492.31 1550.86 492.31 1554.17 Q492.31 1559.19 489.231 1561.87 Q486.175 1564.56 480.458 1564.56 Q474.74 1564.56 471.662 1561.87 Q468.606 1559.19 468.606 1554.17 Q468.606 1550.86 470.504 1548.56 Q472.402 1546.27 475.782 1545.49 M474.069 1538.1 Q474.069 1540.79 475.736 1542.29 Q477.426 1543.8 480.458 1543.8 Q483.467 1543.8 485.157 1542.29 Q486.87 1540.79 486.87 1538.1 Q486.87 1535.42 485.157 1533.91 Q483.467 1532.41 480.458 1532.41 Q477.426 1532.41 475.736 1533.91 Q474.069 1535.42 474.069 1538.1 Z" fill="#000000" fill-rule="evenodd" fill-opacity="1" /><path clip-path="url(#clip280)" d="M510.62 1532.41 Q507.009 1532.41 505.18 1535.97 Q503.374 1539.51 503.374 1546.64 Q503.374 1553.75 505.18 1557.31 Q507.009 1560.86 510.62 1560.86 Q514.254 1560.86 516.06 1557.31 Q517.888 1553.75 517.888 1546.64 Q517.888 1539.51 516.06 1535.97 Q514.254 1532.41 510.62 1532.41 M510.62 1528.7 Q516.43 1528.7 519.485 1533.31 Q522.564 1537.89 522.564 1546.64 Q522.564 1555.37 519.485 1559.98 Q516.43 1564.56 510.62 1564.56 Q504.81 1564.56 501.731 1559.98 Q498.675 1555.37 498.675 1546.64 Q498.675 1537.89 501.731 1533.31 Q504.81 1528.7 510.62 1528.7 Z" fill="#000000" fill-rule="evenodd" fill-opacity="1" /><path clip-path="url(#clip280)" d="M540.782 1532.41 Q537.171 1532.41 535.342 1535.97 Q533.536 1539.51 533.536 1546.64 Q533.536 1553.75 535.342 1557.31 Q537.171 1560.86 540.782 1560.86 Q544.416 1560.86 546.221 1557.31 Q548.05 1553.75 548.05 1546.64 Q548.05 1539.51 546.221 1535.97 Q544.416 1532.41 540.782 1532.41 M540.782 1528.7 Q546.592 1528.7 549.647 1533.31 Q552.726 1537.89 552.726 1546.64 Q552.726 1555.37 549.647 1559.98 Q546.592 1564.56 540.782 1564.56 Q534.972 1564.56 531.893 1559.98 Q528.837 1555.37 528.837 1546.64 Q528.837 1537.89 531.893 1533.31 Q534.972 1528.7 540.782 1528.7 Z" fill="#000000" fill-rule="evenodd" fill-opacity="1" /><path clip-path="url(#clip280)" d="M570.944 1532.41 Q567.332 1532.41 565.504 1535.97 Q563.698 1539.51 563.698 1546.64 Q563.698 1553.75 565.504 1557.31 Q567.332 1560.86 570.944 1560.86 Q574.578 1560.86 576.383 1557.31 Q578.212 1553.75 578.212 1546.64 Q578.212 1539.51 576.383 1535.97 Q574.578 1532.41 570.944 1532.41 M570.944 1528.7 Q576.754 1528.7 579.809 1533.31 Q582.888 1537.89 582.888 1546.64 Q582.888 1555.37 579.809 1559.98 Q576.754 1564.56 570.944 1564.56 Q565.133 1564.56 562.055 1559.98 Q558.999 1555.37 558.999 1546.64 Q558.999 1537.89 562.055 1533.31 Q565.133 1528.7 570.944 1528.7 Z" fill="#000000" fill-rule="evenodd" fill-opacity="1" /><path clip-path="url(#clip280)" d="M1088.02 1559.95 L1095.66 1559.95 L1095.66 1533.59 L1087.35 1535.25 L1087.35 1530.99 L1095.61 1529.33 L1100.29 1529.33 L1100.29 1559.95 L1107.93 1559.95 L1107.93 1563.89 L1088.02 1563.89 L1088.02 1559.95 Z" fill="#000000" fill-rule="evenodd" fill-opacity="1" /><path clip-path="url(#clip280)" d="M1121.4 1559.95 L1137.72 1559.95 L1137.72 1563.89 L1115.78 1563.89 L1115.78 1559.95 Q1118.44 1557.2 1123.02 1552.57 Q1127.63 1547.92 1128.81 1546.57 Q1131.05 1544.05 1131.93 1542.31 Q1132.84 1540.55 1132.84 1538.86 Q1132.84 1536.11 1130.89 1534.37 Q1128.97 1532.64 1125.87 1532.64 Q1123.67 1532.64 1121.22 1533.4 Q1118.79 1534.17 1116.01 1535.72 L1116.01 1530.99 Q1118.83 1529.86 1121.29 1529.28 Q1123.74 1528.7 1125.78 1528.7 Q1131.15 1528.7 1134.34 1531.39 Q1137.54 1534.07 1137.54 1538.56 Q1137.54 1540.69 1136.73 1542.61 Q1135.94 1544.51 1133.83 1547.11 Q1133.25 1547.78 1130.15 1550.99 Q1127.05 1554.19 1121.4 1559.95 Z" fill="#000000" fill-rule="evenodd" fill-opacity="1" /><path clip-path="url(#clip280)" d="M1147.67 1563.17 L1147.67 1558.91 Q1149.43 1559.74 1151.24 1560.18 Q1153.04 1560.62 1154.78 1560.62 Q1159.41 1560.62 1161.84 1557.52 Q1164.29 1554.4 1164.64 1548.05 Q1163.3 1550.05 1161.24 1551.11 Q1159.18 1552.17 1156.68 1552.17 Q1151.49 1552.17 1148.46 1549.05 Q1145.45 1545.9 1145.45 1540.46 Q1145.45 1535.14 1148.6 1531.92 Q1151.75 1528.7 1156.98 1528.7 Q1162.98 1528.7 1166.12 1533.31 Q1169.29 1537.89 1169.29 1546.64 Q1169.29 1554.81 1165.41 1559.7 Q1161.54 1564.56 1154.99 1564.56 Q1153.23 1564.56 1151.42 1564.21 Q1149.62 1563.86 1147.67 1563.17 M1156.98 1548.52 Q1160.13 1548.52 1161.96 1546.36 Q1163.81 1544.21 1163.81 1540.46 Q1163.81 1536.74 1161.96 1534.58 Q1160.13 1532.41 1156.98 1532.41 Q1153.83 1532.41 1151.98 1534.58 Q1150.15 1536.74 1150.15 1540.46 Q1150.15 1544.21 1151.98 1546.36 Q1153.83 1548.52 1156.98 1548.52 Z" fill="#000000" fill-rule="evenodd" fill-opacity="1" /><path clip-path="url(#clip280)" d="M1187.7 1532.41 Q1184.09 1532.41 1182.26 1535.97 Q1180.45 1539.51 1180.45 1546.64 Q1180.45 1553.75 1182.26 1557.31 Q1184.09 1560.86 1187.7 1560.86 Q1191.33 1560.86 1193.14 1557.31 Q1194.97 1553.75 1194.97 1546.64 Q1194.97 1539.51 1193.14 1535.97 Q1191.33 1532.41 1187.7 1532.41 M1187.7 1528.7 Q1193.51 1528.7 1196.56 1533.31 Q1199.64 1537.89 1199.64 1546.64 Q1199.64 1555.37 1196.56 1559.98 Q1193.51 1564.56 1187.7 1564.56 Q1181.89 1564.56 1178.81 1559.98 Q1175.75 1555.37 1175.75 1546.64 Q1175.75 1537.89 1178.81 1533.31 Q1181.89 1528.7 1187.7 1528.7 Z" fill="#000000" fill-rule="evenodd" fill-opacity="1" /><path clip-path="url(#clip280)" d="M1217.86 1532.41 Q1214.25 1532.41 1212.42 1535.97 Q1210.61 1539.51 1210.61 1546.64 Q1210.61 1553.75 1212.42 1557.31 Q1214.25 1560.86 1217.86 1560.86 Q1221.49 1560.86 1223.3 1557.31 Q1225.13 1553.75 1225.13 1546.64 Q1225.13 1539.51 1223.3 1535.97 Q1221.49 1532.41 1217.86 1532.41 M1217.86 1528.7 Q1223.67 1528.7 1226.72 1533.31 Q1229.8 1537.89 1229.8 1546.64 Q1229.8 1555.37 1226.72 1559.98 Q1223.67 1564.56 1217.86 1564.56 Q1212.05 1564.56 1208.97 1559.98 Q1205.91 1555.37 1205.91 1546.64 Q1205.91 1537.89 1208.97 1533.31 Q1212.05 1528.7 1217.86 1528.7 Z" fill="#000000" fill-rule="evenodd" fill-opacity="1" /><path clip-path="url(#clip280)" d="M1248.02 1532.41 Q1244.41 1532.41 1242.58 1535.97 Q1240.78 1539.51 1240.78 1546.64 Q1240.78 1553.75 1242.58 1557.31 Q1244.41 1560.86 1248.02 1560.86 Q1251.66 1560.86 1253.46 1557.31 Q1255.29 1553.75 1255.29 1546.64 Q1255.29 1539.51 1253.46 1535.97 Q1251.66 1532.41 1248.02 1532.41 M1248.02 1528.7 Q1253.83 1528.7 1256.89 1533.31 Q1259.97 1537.89 1259.97 1546.64 Q1259.97 1555.37 1256.89 1559.98 Q1253.83 1564.56 1248.02 1564.56 Q1242.21 1564.56 1239.13 1559.98 Q1236.08 1555.37 1236.08 1546.64 Q1236.08 1537.89 1239.13 1533.31 Q1242.21 1528.7 1248.02 1528.7 Z" fill="#000000" fill-rule="evenodd" fill-opacity="1" /><path clip-path="url(#clip280)" d="M1765.1 1559.95 L1772.74 1559.95 L1772.74 1533.59 L1764.43 1535.25 L1764.43 1530.99 L1772.69 1529.33 L1777.37 1529.33 L1777.37 1559.95 L1785.01 1559.95 L1785.01 1563.89 L1765.1 1563.89 L1765.1 1559.95 Z" fill="#000000" fill-rule="evenodd" fill-opacity="1" /><path clip-path="url(#clip280)" d="M1808.62 1545.25 Q1811.97 1545.97 1813.85 1548.24 Q1815.75 1550.51 1815.75 1553.84 Q1815.75 1558.96 1812.23 1561.76 Q1808.71 1564.56 1802.23 1564.56 Q1800.05 1564.56 1797.74 1564.12 Q1795.45 1563.7 1792.99 1562.85 L1792.99 1558.33 Q1794.94 1559.47 1797.25 1560.05 Q1799.57 1560.62 1802.09 1560.62 Q1806.49 1560.62 1808.78 1558.89 Q1811.09 1557.15 1811.09 1553.84 Q1811.09 1550.79 1808.94 1549.07 Q1806.81 1547.34 1802.99 1547.34 L1798.97 1547.34 L1798.97 1543.49 L1803.18 1543.49 Q1806.63 1543.49 1808.46 1542.13 Q1810.28 1540.74 1810.28 1538.15 Q1810.28 1535.49 1808.39 1534.07 Q1806.51 1532.64 1802.99 1532.64 Q1801.07 1532.64 1798.87 1533.05 Q1796.67 1533.47 1794.03 1534.35 L1794.03 1530.18 Q1796.7 1529.44 1799.01 1529.07 Q1801.35 1528.7 1803.41 1528.7 Q1808.73 1528.7 1811.84 1531.13 Q1814.94 1533.54 1814.94 1537.66 Q1814.94 1540.53 1813.29 1542.52 Q1811.65 1544.49 1808.62 1545.25 Z" fill="#000000" fill-rule="evenodd" fill-opacity="1" /><path clip-path="url(#clip280)" d="M1834.61 1532.41 Q1831 1532.41 1829.17 1535.97 Q1827.37 1539.51 1827.37 1546.64 Q1827.37 1553.75 1829.17 1557.31 Q1831 1560.86 1834.61 1560.86 Q1838.25 1560.86 1840.05 1557.31 Q1841.88 1553.75 1841.88 1546.64 Q1841.88 1539.51 1840.05 1535.97 Q1838.25 1532.41 1834.61 1532.41 M1834.61 1528.7 Q1840.42 1528.7 1843.48 1533.31 Q1846.56 1537.89 1846.56 1546.64 Q1846.56 1555.37 1843.48 1559.98 Q1840.42 1564.56 1834.61 1564.56 Q1828.8 1564.56 1825.72 1559.98 Q1822.67 1555.37 1822.67 1546.64 Q1822.67 1537.89 1825.72 1533.31 Q1828.8 1528.7 1834.61 1528.7 Z" fill="#000000" fill-rule="evenodd" fill-opacity="1" /><path clip-path="url(#clip280)" d="M1864.77 1532.41 Q1861.16 1532.41 1859.34 1535.97 Q1857.53 1539.51 1857.53 1546.64 Q1857.53 1553.75 1859.34 1557.31 Q1861.16 1560.86 1864.77 1560.86 Q1868.41 1560.86 1870.21 1557.31 Q1872.04 1553.75 1872.04 1546.64 Q1872.04 1539.51 1870.21 1535.97 Q1868.41 1532.41 1864.77 1532.41 M1864.77 1528.7 Q1870.59 1528.7 1873.64 1533.31 Q1876.72 1537.89 1876.72 1546.64 Q1876.72 1555.37 1873.64 1559.98 Q1870.59 1564.56 1864.77 1564.56 Q1858.96 1564.56 1855.89 1559.98 Q1852.83 1555.37 1852.83 1546.64 Q1852.83 1537.89 1855.89 1533.31 Q1858.96 1528.7 1864.77 1528.7 Z" fill="#000000" fill-rule="evenodd" fill-opacity="1" /><path clip-path="url(#clip280)" d="M1894.94 1532.41 Q1891.33 1532.41 1889.5 1535.97 Q1887.69 1539.51 1887.69 1546.64 Q1887.69 1553.75 1889.5 1557.31 Q1891.33 1560.86 1894.94 1560.86 Q1898.57 1560.86 1900.38 1557.31 Q1902.21 1553.75 1902.21 1546.64 Q1902.21 1539.51 1900.38 1535.97 Q1898.57 1532.41 1894.94 1532.41 M1894.94 1528.7 Q1900.75 1528.7 1903.8 1533.31 Q1906.88 1537.89 1906.88 1546.64 Q1906.88 1555.37 1903.8 1559.98 Q1900.75 1564.56 1894.94 1564.56 Q1889.13 1564.56 1886.05 1559.98 Q1882.99 1555.37 1882.99 1546.64 Q1882.99 1537.89 1886.05 1533.31 Q1889.13 1528.7 1894.94 1528.7 Z" fill="#000000" fill-rule="evenodd" fill-opacity="1" /><path clip-path="url(#clip280)" d="M1925.1 1532.41 Q1921.49 1532.41 1919.66 1535.97 Q1917.85 1539.51 1917.85 1546.64 Q1917.85 1553.75 1919.66 1557.31 Q1921.49 1560.86 1925.1 1560.86 Q1928.73 1560.86 1930.54 1557.31 Q1932.37 1553.75 1932.37 1546.64 Q1932.37 1539.51 1930.54 1535.97 Q1928.73 1532.41 1925.1 1532.41 M1925.1 1528.7 Q1930.91 1528.7 1933.96 1533.31 Q1937.04 1537.89 1937.04 1546.64 Q1937.04 1555.37 1933.96 1559.98 Q1930.91 1564.56 1925.1 1564.56 Q1919.29 1564.56 1916.21 1559.98 Q1913.15 1555.37 1913.15 1546.64 Q1913.15 1537.89 1916.21 1533.31 Q1919.29 1528.7 1925.1 1528.7 Z" fill="#000000" fill-rule="evenodd" fill-opacity="1" /><path clip-path="url(#clip280)" d="M2442.18 1559.95 L2449.82 1559.95 L2449.82 1533.59 L2441.51 1535.25 L2441.51 1530.99 L2449.77 1529.33 L2454.45 1529.33 L2454.45 1559.95 L2462.08 1559.95 L2462.08 1563.89 L2442.18 1563.89 L2442.18 1559.95 Z" fill="#000000" fill-rule="evenodd" fill-opacity="1" /><path clip-path="url(#clip280)" d="M2485.7 1545.25 Q2489.05 1545.97 2490.93 1548.24 Q2492.83 1550.51 2492.83 1553.84 Q2492.83 1558.96 2489.31 1561.76 Q2485.79 1564.56 2479.31 1564.56 Q2477.13 1564.56 2474.82 1564.12 Q2472.52 1563.7 2470.07 1562.85 L2470.07 1558.33 Q2472.01 1559.47 2474.33 1560.05 Q2476.64 1560.62 2479.17 1560.62 Q2483.57 1560.62 2485.86 1558.89 Q2488.17 1557.15 2488.17 1553.84 Q2488.17 1550.79 2486.02 1549.07 Q2483.89 1547.34 2480.07 1547.34 L2476.04 1547.34 L2476.04 1543.49 L2480.26 1543.49 Q2483.7 1543.49 2485.53 1542.13 Q2487.36 1540.74 2487.36 1538.15 Q2487.36 1535.49 2485.46 1534.07 Q2483.59 1532.64 2480.07 1532.64 Q2478.15 1532.64 2475.95 1533.05 Q2473.75 1533.47 2471.11 1534.35 L2471.11 1530.18 Q2473.77 1529.44 2476.09 1529.07 Q2478.43 1528.7 2480.49 1528.7 Q2485.81 1528.7 2488.91 1531.13 Q2492.01 1533.54 2492.01 1537.66 Q2492.01 1540.53 2490.37 1542.52 Q2488.73 1544.49 2485.7 1545.25 Z" fill="#000000" fill-rule="evenodd" fill-opacity="1" /><path clip-path="url(#clip280)" d="M2502.5 1559.95 L2510.14 1559.95 L2510.14 1533.59 L2501.83 1535.25 L2501.83 1530.99 L2510.09 1529.33 L2514.77 1529.33 L2514.77 1559.95 L2522.41 1559.95 L2522.41 1563.89 L2502.5 1563.89 L2502.5 1559.95 Z" fill="#000000" fill-rule="evenodd" fill-opacity="1" /><path clip-path="url(#clip280)" d="M2541.85 1532.41 Q2538.24 1532.41 2536.41 1535.97 Q2534.61 1539.51 2534.61 1546.64 Q2534.61 1553.75 2536.41 1557.31 Q2538.24 1560.86 2541.85 1560.86 Q2545.49 1560.86 2547.29 1557.31 Q2549.12 1553.75 2549.12 1546.64 Q2549.12 1539.51 2547.29 1535.97 Q2545.49 1532.41 2541.85 1532.41 M2541.85 1528.7 Q2547.66 1528.7 2550.72 1533.31 Q2553.8 1537.89 2553.8 1546.64 Q2553.8 1555.37 2550.72 1559.98 Q2547.66 1564.56 2541.85 1564.56 Q2536.04 1564.56 2532.96 1559.98 Q2529.91 1555.37 2529.91 1546.64 Q2529.91 1537.89 2532.96 1533.31 Q2536.04 1528.7 2541.85 1528.7 Z" fill="#000000" fill-rule="evenodd" fill-opacity="1" /><path clip-path="url(#clip280)" d="M2572.01 1532.41 Q2568.4 1532.41 2566.57 1535.97 Q2564.77 1539.51 2564.77 1546.64 Q2564.77 1553.75 2566.57 1557.31 Q2568.4 1560.86 2572.01 1560.86 Q2575.65 1560.86 2577.45 1557.31 Q2579.28 1553.75 2579.28 1546.64 Q2579.28 1539.51 2577.45 1535.97 Q2575.65 1532.41 2572.01 1532.41 M2572.01 1528.7 Q2577.82 1528.7 2580.88 1533.31 Q2583.96 1537.89 2583.96 1546.64 Q2583.96 1555.37 2580.88 1559.98 Q2577.82 1564.56 2572.01 1564.56 Q2566.2 1564.56 2563.13 1559.98 Q2560.07 1555.37 2560.07 1546.64 Q2560.07 1537.89 2563.13 1533.31 Q2566.2 1528.7 2572.01 1528.7 Z" fill="#000000" fill-rule="evenodd" fill-opacity="1" /><path clip-path="url(#clip280)" d="M2602.18 1532.41 Q2598.57 1532.41 2596.74 1535.97 Q2594.93 1539.51 2594.93 1546.64 Q2594.93 1553.75 2596.74 1557.31 Q2598.57 1560.86 2602.18 1560.86 Q2605.81 1560.86 2607.62 1557.31 Q2609.44 1553.75 2609.44 1546.64 Q2609.44 1539.51 2607.62 1535.97 Q2605.81 1532.41 2602.18 1532.41 M2602.18 1528.7 Q2607.99 1528.7 2611.04 1533.31 Q2614.12 1537.89 2614.12 1546.64 Q2614.12 1555.37 2611.04 1559.98 Q2607.99 1564.56 2602.18 1564.56 Q2596.37 1564.56 2593.29 1559.98 Q2590.23 1555.37 2590.23 1546.64 Q2590.23 1537.89 2593.29 1533.31 Q2596.37 1528.7 2602.18 1528.7 Z" fill="#000000" fill-rule="evenodd" fill-opacity="1" /><polyline clip-path="url(#clip282)" style="stroke:#000000; stroke-linecap:butt; stroke-linejoin:round; stroke-width:2; stroke-opacity:0.1; fill:none" points="
  210.177,1454.11 3152.76,1454.11 
  "/>
<polyline clip-path="url(#clip282)" style="stroke:#000000; stroke-linecap:butt; stroke-linejoin:round; stroke-width:2; stroke-opacity:0.1; fill:none" points="
  210.177,1151.89 3152.76,1151.89 
  "/>
<polyline clip-path="url(#clip282)" style="stroke:#000000; stroke-linecap:butt; stroke-linejoin:round; stroke-width:2; stroke-opacity:0.1; fill:none" points="
  210.177,849.676 3152.76,849.676 
  "/>
<polyline clip-path="url(#clip282)" style="stroke:#000000; stroke-linecap:butt; stroke-linejoin:round; stroke-width:2; stroke-opacity:0.1; fill:none" points="
  210.177,547.459 3152.76,547.459 
  "/>
<polyline clip-path="url(#clip282)" style="stroke:#000000; stroke-linecap:butt; stroke-linejoin:round; stroke-width:2; stroke-opacity:0.1; fill:none" points="
  210.177,245.242 3152.76,245.242 
  "/>
<polyline clip-path="url(#clip280)" style="stroke:#000000; stroke-linecap:butt; stroke-linejoin:round; stroke-width:4; stroke-opacity:1; fill:none" points="
  210.177,1495.09 210.177,47.2441 
  "/>
<polyline clip-path="url(#clip280)" style="stroke:#000000; stroke-linecap:butt; stroke-linejoin:round; stroke-width:4; stroke-opacity:1; fill:none" points="
  210.177,1454.11 229.074,1454.11 
  "/>
<polyline clip-path="url(#clip280)" style="stroke:#000000; stroke-linecap:butt; stroke-linejoin:round; stroke-width:4; stroke-opacity:1; fill:none" points="
  210.177,1151.89 229.074,1151.89 
  "/>
<polyline clip-path="url(#clip280)" style="stroke:#000000; stroke-linecap:butt; stroke-linejoin:round; stroke-width:4; stroke-opacity:1; fill:none" points="
  210.177,849.676 229.074,849.676 
  "/>
<polyline clip-path="url(#clip280)" style="stroke:#000000; stroke-linecap:butt; stroke-linejoin:round; stroke-width:4; stroke-opacity:1; fill:none" points="
  210.177,547.459 229.074,547.459 
  "/>
<polyline clip-path="url(#clip280)" style="stroke:#000000; stroke-linecap:butt; stroke-linejoin:round; stroke-width:4; stroke-opacity:1; fill:none" points="
  210.177,245.242 229.074,245.242 
  "/>
<path clip-path="url(#clip280)" d="M150.232 1439.91 Q146.621 1439.91 144.793 1443.47 Q142.987 1447.02 142.987 1454.15 Q142.987 1461.25 144.793 1464.82 Q146.621 1468.36 150.232 1468.36 Q153.867 1468.36 155.672 1464.82 Q157.501 1461.25 157.501 1454.15 Q157.501 1447.02 155.672 1443.47 Q153.867 1439.91 150.232 1439.91 M150.232 1436.21 Q156.042 1436.21 159.098 1440.81 Q162.177 1445.4 162.177 1454.15 Q162.177 1462.87 159.098 1467.48 Q156.042 1472.06 150.232 1472.06 Q144.422 1472.06 141.343 1467.48 Q138.288 1462.87 138.288 1454.15 Q138.288 1445.4 141.343 1440.81 Q144.422 1436.21 150.232 1436.21 Z" fill="#000000" fill-rule="evenodd" fill-opacity="1" /><path clip-path="url(#clip280)" d="M50.5569 1165.24 L58.1958 1165.24 L58.1958 1138.87 L49.8856 1140.54 L49.8856 1136.28 L58.1495 1134.61 L62.8254 1134.61 L62.8254 1165.24 L70.4642 1165.24 L70.4642 1169.17 L50.5569 1169.17 L50.5569 1165.24 Z" fill="#000000" fill-rule="evenodd" fill-opacity="1" /><path clip-path="url(#clip280)" d="M89.9086 1137.69 Q86.2975 1137.69 84.4688 1141.26 Q82.6632 1144.8 82.6632 1151.93 Q82.6632 1159.03 84.4688 1162.6 Q86.2975 1166.14 89.9086 1166.14 Q93.5428 1166.14 95.3483 1162.6 Q97.177 1159.03 97.177 1151.93 Q97.177 1144.8 95.3483 1141.26 Q93.5428 1137.69 89.9086 1137.69 M89.9086 1133.99 Q95.7187 1133.99 98.7743 1138.6 Q101.853 1143.18 101.853 1151.93 Q101.853 1160.66 98.7743 1165.26 Q95.7187 1169.85 89.9086 1169.85 Q84.0984 1169.85 81.0197 1165.26 Q77.9642 1160.66 77.9642 1151.93 Q77.9642 1143.18 81.0197 1138.6 Q84.0984 1133.99 89.9086 1133.99 Z" fill="#000000" fill-rule="evenodd" fill-opacity="1" /><path clip-path="url(#clip280)" d="M120.07 1137.69 Q116.459 1137.69 114.631 1141.26 Q112.825 1144.8 112.825 1151.93 Q112.825 1159.03 114.631 1162.6 Q116.459 1166.14 120.07 1166.14 Q123.705 1166.14 125.51 1162.6 Q127.339 1159.03 127.339 1151.93 Q127.339 1144.8 125.51 1141.26 Q123.705 1137.69 120.07 1137.69 M120.07 1133.99 Q125.881 1133.99 128.936 1138.6 Q132.015 1143.18 132.015 1151.93 Q132.015 1160.66 128.936 1165.26 Q125.881 1169.85 120.07 1169.85 Q114.26 1169.85 111.182 1165.26 Q108.126 1160.66 108.126 1151.93 Q108.126 1143.18 111.182 1138.6 Q114.26 1133.99 120.07 1133.99 Z" fill="#000000" fill-rule="evenodd" fill-opacity="1" /><path clip-path="url(#clip280)" d="M150.232 1137.69 Q146.621 1137.69 144.793 1141.26 Q142.987 1144.8 142.987 1151.93 Q142.987 1159.03 144.793 1162.6 Q146.621 1166.14 150.232 1166.14 Q153.867 1166.14 155.672 1162.6 Q157.501 1159.03 157.501 1151.93 Q157.501 1144.8 155.672 1141.26 Q153.867 1137.69 150.232 1137.69 M150.232 1133.99 Q156.042 1133.99 159.098 1138.6 Q162.177 1143.18 162.177 1151.93 Q162.177 1160.66 159.098 1165.26 Q156.042 1169.85 150.232 1169.85 Q144.422 1169.85 141.343 1165.26 Q138.288 1160.66 138.288 1151.93 Q138.288 1143.18 141.343 1138.6 Q144.422 1133.99 150.232 1133.99 Z" fill="#000000" fill-rule="evenodd" fill-opacity="1" /><path clip-path="url(#clip280)" d="M53.7745 863.021 L70.0939 863.021 L70.0939 866.956 L48.1495 866.956 L48.1495 863.021 Q50.8115 860.267 55.3949 855.637 Q60.0013 850.984 61.1819 849.642 Q63.4272 847.118 64.3068 845.382 Q65.2096 843.623 65.2096 841.933 Q65.2096 839.179 63.2652 837.443 Q61.3439 835.707 58.2421 835.707 Q56.043 835.707 53.5893 836.47 Q51.1588 837.234 48.381 838.785 L48.381 834.063 Q51.2051 832.929 53.6588 832.35 Q56.1124 831.771 58.1495 831.771 Q63.5198 831.771 66.7142 834.457 Q69.9087 837.142 69.9087 841.632 Q69.9087 843.762 69.0985 845.683 Q68.3115 847.581 66.205 850.174 Q65.6263 850.845 62.5245 854.063 Q59.4226 857.257 53.7745 863.021 Z" fill="#000000" fill-rule="evenodd" fill-opacity="1" /><path clip-path="url(#clip280)" d="M89.9086 835.475 Q86.2975 835.475 84.4688 839.04 Q82.6632 842.581 82.6632 849.711 Q82.6632 856.818 84.4688 860.382 Q86.2975 863.924 89.9086 863.924 Q93.5428 863.924 95.3483 860.382 Q97.177 856.818 97.177 849.711 Q97.177 842.581 95.3483 839.04 Q93.5428 835.475 89.9086 835.475 M89.9086 831.771 Q95.7187 831.771 98.7743 836.378 Q101.853 840.961 101.853 849.711 Q101.853 858.438 98.7743 863.044 Q95.7187 867.628 89.9086 867.628 Q84.0984 867.628 81.0197 863.044 Q77.9642 858.438 77.9642 849.711 Q77.9642 840.961 81.0197 836.378 Q84.0984 831.771 89.9086 831.771 Z" fill="#000000" fill-rule="evenodd" fill-opacity="1" /><path clip-path="url(#clip280)" d="M120.07 835.475 Q116.459 835.475 114.631 839.04 Q112.825 842.581 112.825 849.711 Q112.825 856.818 114.631 860.382 Q116.459 863.924 120.07 863.924 Q123.705 863.924 125.51 860.382 Q127.339 856.818 127.339 849.711 Q127.339 842.581 125.51 839.04 Q123.705 835.475 120.07 835.475 M120.07 831.771 Q125.881 831.771 128.936 836.378 Q132.015 840.961 132.015 849.711 Q132.015 858.438 128.936 863.044 Q125.881 867.628 120.07 867.628 Q114.26 867.628 111.182 863.044 Q108.126 858.438 108.126 849.711 Q108.126 840.961 111.182 836.378 Q114.26 831.771 120.07 831.771 Z" fill="#000000" fill-rule="evenodd" fill-opacity="1" /><path clip-path="url(#clip280)" d="M150.232 835.475 Q146.621 835.475 144.793 839.04 Q142.987 842.581 142.987 849.711 Q142.987 856.818 144.793 860.382 Q146.621 863.924 150.232 863.924 Q153.867 863.924 155.672 860.382 Q157.501 856.818 157.501 849.711 Q157.501 842.581 155.672 839.04 Q153.867 835.475 150.232 835.475 M150.232 831.771 Q156.042 831.771 159.098 836.378 Q162.177 840.961 162.177 849.711 Q162.177 858.438 159.098 863.044 Q156.042 867.628 150.232 867.628 Q144.422 867.628 141.343 863.044 Q138.288 858.438 138.288 849.711 Q138.288 840.961 141.343 836.378 Q144.422 831.771 150.232 831.771 Z" fill="#000000" fill-rule="evenodd" fill-opacity="1" /><path clip-path="url(#clip280)" d="M63.9133 546.105 Q67.2698 546.822 69.1448 549.091 Q71.0429 551.359 71.0429 554.693 Q71.0429 559.808 67.5244 562.609 Q64.0059 565.41 57.5245 565.41 Q55.3486 565.41 53.0338 564.97 Q50.7421 564.554 48.2884 563.697 L48.2884 559.183 Q50.2328 560.318 52.5477 560.896 Q54.8625 561.475 57.3856 561.475 Q61.7837 561.475 64.0754 559.739 Q66.3902 558.003 66.3902 554.693 Q66.3902 551.637 64.2374 549.924 Q62.1078 548.188 58.2884 548.188 L54.2606 548.188 L54.2606 544.346 L58.4735 544.346 Q61.9226 544.346 63.7513 542.98 Q65.58 541.591 65.58 538.998 Q65.58 536.336 63.6819 534.924 Q61.8069 533.489 58.2884 533.489 Q56.3671 533.489 54.168 533.906 Q51.969 534.322 49.3301 535.202 L49.3301 531.035 Q51.9921 530.295 54.3069 529.924 Q56.6449 529.554 58.705 529.554 Q64.0291 529.554 67.1309 531.984 Q70.2327 534.392 70.2327 538.512 Q70.2327 541.383 68.5892 543.373 Q66.9457 545.341 63.9133 546.105 Z" fill="#000000" fill-rule="evenodd" fill-opacity="1" /><path clip-path="url(#clip280)" d="M89.9086 533.258 Q86.2975 533.258 84.4688 536.822 Q82.6632 540.364 82.6632 547.494 Q82.6632 554.6 84.4688 558.165 Q86.2975 561.707 89.9086 561.707 Q93.5428 561.707 95.3483 558.165 Q97.177 554.6 97.177 547.494 Q97.177 540.364 95.3483 536.822 Q93.5428 533.258 89.9086 533.258 M89.9086 529.554 Q95.7187 529.554 98.7743 534.16 Q101.853 538.744 101.853 547.494 Q101.853 556.22 98.7743 560.827 Q95.7187 565.41 89.9086 565.41 Q84.0984 565.41 81.0197 560.827 Q77.9642 556.22 77.9642 547.494 Q77.9642 538.744 81.0197 534.16 Q84.0984 529.554 89.9086 529.554 Z" fill="#000000" fill-rule="evenodd" fill-opacity="1" /><path clip-path="url(#clip280)" d="M120.07 533.258 Q116.459 533.258 114.631 536.822 Q112.825 540.364 112.825 547.494 Q112.825 554.6 114.631 558.165 Q116.459 561.707 120.07 561.707 Q123.705 561.707 125.51 558.165 Q127.339 554.6 127.339 547.494 Q127.339 540.364 125.51 536.822 Q123.705 533.258 120.07 533.258 M120.07 529.554 Q125.881 529.554 128.936 534.16 Q132.015 538.744 132.015 547.494 Q132.015 556.22 128.936 560.827 Q125.881 565.41 120.07 565.41 Q114.26 565.41 111.182 560.827 Q108.126 556.22 108.126 547.494 Q108.126 538.744 111.182 534.16 Q114.26 529.554 120.07 529.554 Z" fill="#000000" fill-rule="evenodd" fill-opacity="1" /><path clip-path="url(#clip280)" d="M150.232 533.258 Q146.621 533.258 144.793 536.822 Q142.987 540.364 142.987 547.494 Q142.987 554.6 144.793 558.165 Q146.621 561.707 150.232 561.707 Q153.867 561.707 155.672 558.165 Q157.501 554.6 157.501 547.494 Q157.501 540.364 155.672 536.822 Q153.867 533.258 150.232 533.258 M150.232 529.554 Q156.042 529.554 159.098 534.16 Q162.177 538.744 162.177 547.494 Q162.177 556.22 159.098 560.827 Q156.042 565.41 150.232 565.41 Q144.422 565.41 141.343 560.827 Q138.288 556.22 138.288 547.494 Q138.288 538.744 141.343 534.16 Q144.422 529.554 150.232 529.554 Z" fill="#000000" fill-rule="evenodd" fill-opacity="1" /><path clip-path="url(#clip280)" d="M62.5939 232.036 L50.7884 250.485 L62.5939 250.485 L62.5939 232.036 M61.367 227.962 L67.2466 227.962 L67.2466 250.485 L72.1772 250.485 L72.1772 254.373 L67.2466 254.373 L67.2466 262.522 L62.5939 262.522 L62.5939 254.373 L46.9921 254.373 L46.9921 249.86 L61.367 227.962 Z" fill="#000000" fill-rule="evenodd" fill-opacity="1" /><path clip-path="url(#clip280)" d="M89.9086 231.04 Q86.2975 231.04 84.4688 234.605 Q82.6632 238.147 82.6632 245.276 Q82.6632 252.383 84.4688 255.947 Q86.2975 259.489 89.9086 259.489 Q93.5428 259.489 95.3483 255.947 Q97.177 252.383 97.177 245.276 Q97.177 238.147 95.3483 234.605 Q93.5428 231.04 89.9086 231.04 M89.9086 227.337 Q95.7187 227.337 98.7743 231.943 Q101.853 236.526 101.853 245.276 Q101.853 254.003 98.7743 258.61 Q95.7187 263.193 89.9086 263.193 Q84.0984 263.193 81.0197 258.61 Q77.9642 254.003 77.9642 245.276 Q77.9642 236.526 81.0197 231.943 Q84.0984 227.337 89.9086 227.337 Z" fill="#000000" fill-rule="evenodd" fill-opacity="1" /><path clip-path="url(#clip280)" d="M120.07 231.04 Q116.459 231.04 114.631 234.605 Q112.825 238.147 112.825 245.276 Q112.825 252.383 114.631 255.947 Q116.459 259.489 120.07 259.489 Q123.705 259.489 125.51 255.947 Q127.339 252.383 127.339 245.276 Q127.339 238.147 125.51 234.605 Q123.705 231.04 120.07 231.04 M120.07 227.337 Q125.881 227.337 128.936 231.943 Q132.015 236.526 132.015 245.276 Q132.015 254.003 128.936 258.61 Q125.881 263.193 120.07 263.193 Q114.26 263.193 111.182 258.61 Q108.126 254.003 108.126 245.276 Q108.126 236.526 111.182 231.943 Q114.26 227.337 120.07 227.337 Z" fill="#000000" fill-rule="evenodd" fill-opacity="1" /><path clip-path="url(#clip280)" d="M150.232 231.04 Q146.621 231.04 144.793 234.605 Q142.987 238.147 142.987 245.276 Q142.987 252.383 144.793 255.947 Q146.621 259.489 150.232 259.489 Q153.867 259.489 155.672 255.947 Q157.501 252.383 157.501 245.276 Q157.501 238.147 155.672 234.605 Q153.867 231.04 150.232 231.04 M150.232 227.337 Q156.042 227.337 159.098 231.943 Q162.177 236.526 162.177 245.276 Q162.177 254.003 159.098 258.61 Q156.042 263.193 150.232 263.193 Q144.422 263.193 141.343 258.61 Q138.288 254.003 138.288 245.276 Q138.288 236.526 141.343 231.943 Q144.422 227.337 150.232 227.337 Z" fill="#000000" fill-rule="evenodd" fill-opacity="1" /><polyline clip-path="url(#clip282)" style="stroke:#009af9; stroke-linecap:butt; stroke-linejoin:round; stroke-width:8; stroke-opacity:1; fill:none" points="
  293.457,1454.11 293.457,1418.15 361.165,1418.15 361.165,1420.26 428.873,1420.26 428.873,1416.64 496.581,1416.64 496.581,1419.05 564.288,1419.05 564.288,1422.08 
  631.996,1422.08 631.996,1420.87 699.704,1420.87 699.704,1414.82 767.412,1414.82 767.412,1414.52 835.119,1414.52 835.119,1415.43 902.827,1415.43 902.827,1418.15 
  970.535,1418.15 970.535,1412.1 1038.24,1412.1 1038.24,1408.78 1105.95,1408.78 1105.95,1410.89 1173.66,1410.89 1173.66,1411.5 1241.37,1411.5 1241.37,1403.04 
  1309.07,1403.04 1309.07,1389.44 1376.78,1389.44 1376.78,1347.43 1444.49,1347.43 1444.49,1132.55 1512.2,1132.55 1512.2,746.318 1579.9,746.318 1579.9,236.175 
  1647.61,236.175 1647.61,104.71 1715.32,104.71 1715.32,457.096 1783.03,457.096 1783.03,968.75 1850.74,968.75 1850.74,1296.66 1918.44,1296.66 1918.44,1411.5 
  1986.15,1411.5 1986.15,1431.14 2053.86,1431.14 2053.86,1426.91 2121.57,1426.91 2121.57,1422.98 2189.27,1422.98 2189.27,1424.8 2256.98,1424.8 2256.98,1427.82 
  2324.69,1427.82 2324.69,1435.68 2392.4,1435.68 2392.4,1432.05 2460.11,1432.05 2460.11,1427.82 2527.81,1427.82 2527.81,1426.31 2595.52,1426.31 2595.52,1425.7 
  2663.23,1425.7 2663.23,1427.82 2730.94,1427.82 2730.94,1431.75 2798.64,1431.75 2798.64,1428.42 2866.35,1428.42 2866.35,1427.21 2934.06,1427.21 2934.06,1432.96 
  3001.77,1432.96 3001.77,1430.84 3069.48,1430.84 3069.48,1454.11 
  "/>
<polyline clip-path="url(#clip282)" style="stroke:#e26f46; stroke-linecap:butt; stroke-linejoin:round; stroke-width:8; stroke-opacity:1; fill:none" points="
  293.457,1422.07 306.74,1422.07 320.022,1422.07 333.304,1422.07 346.587,1422.07 359.869,1422.07 373.152,1422.07 386.434,1422.07 399.716,1422.07 412.999,1422.07 
  426.281,1422.07 439.563,1422.07 452.846,1422.07 466.128,1422.07 479.411,1422.07 492.693,1422.07 505.975,1422.07 519.258,1422.07 532.54,1422.07 545.823,1422.07 
  559.105,1422.07 572.387,1422.07 585.67,1422.07 598.952,1422.07 612.234,1422.07 625.517,1422.07 638.799,1422.07 652.082,1422.07 665.364,1422.07 678.646,1422.07 
  691.929,1422.07 705.211,1422.07 718.494,1422.07 731.776,1422.07 745.058,1422.07 758.341,1422.07 771.623,1422.07 784.905,1422.07 798.188,1422.07 811.47,1422.07 
  824.753,1422.07 838.035,1422.07 851.317,1422.07 864.6,1422.07 877.882,1422.07 891.164,1422.07 904.447,1422.07 917.729,1422.07 931.012,1422.07 944.294,1422.07 
  957.576,1422.07 970.859,1422.07 984.141,1422.07 997.424,1422.07 1010.71,1422.07 1023.99,1422.07 1037.27,1422.07 1050.55,1422.07 1063.84,1422.07 1077.12,1422.07 
  1090.4,1422.07 1103.68,1422.07 1116.97,1422.07 1130.25,1422.07 1143.53,1422.07 1156.81,1422.06 1170.09,1422.05 1183.38,1422.04 1196.66,1422.01 1209.94,1421.97 
  1223.22,1421.9 1236.51,1421.77 1249.79,1421.57 1263.07,1421.25 1276.35,1420.73 1289.64,1419.94 1302.92,1418.72 1316.2,1416.89 1329.48,1414.21 1342.77,1410.32 
  1356.05,1404.8 1369.33,1397.09 1382.61,1386.53 1395.9,1372.32 1409.18,1353.56 1422.46,1329.27 1435.74,1298.4 1449.02,1259.94 1462.31,1212.97 1475.59,1156.77 
  1488.87,1090.92 1502.15,1015.44 1515.44,930.849 1528.72,838.297 1542,739.565 1555.28,637.084 1568.57,533.866 1581.85,433.387 1595.13,339.399 1608.41,255.718 
  1621.7,185.959 1634.98,133.288 1648.26,100.178 1661.54,88.2208 1674.83,97.9973 1688.11,129.032 1701.39,179.831 1714.67,248.002 1727.95,330.44 1741.24,423.56 
  1754.52,523.559 1767.8,626.664 1781.08,729.364 1794.37,828.594 1807.65,921.861 1820.93,1007.31 1834.21,1083.75 1847.5,1150.57 1860.78,1207.74 1874.06,1255.61 
  1887.34,1294.89 1900.63,1326.48 1913.91,1351.38 1927.19,1370.65 1940.47,1385.27 1953.76,1396.16 1967.04,1404.13 1980.32,1409.85 1993.6,1413.88 2006.88,1416.67 
  2020.17,1418.57 2033.45,1419.83 2046.73,1420.67 2060.01,1421.2 2073.3,1421.54 2086.58,1421.76 2099.86,1421.89 2113.14,1421.96 2126.43,1422.01 2139.71,1422.04 
  2152.99,1422.05 2166.27,1422.06 2179.56,1422.07 2192.84,1422.07 2206.12,1422.07 2219.4,1422.07 2232.69,1422.07 2245.97,1422.07 2259.25,1422.07 2272.53,1422.07 
  2285.81,1422.07 2299.1,1422.07 2312.38,1422.07 2325.66,1422.07 2338.94,1422.07 2352.23,1422.07 2365.51,1422.07 2378.79,1422.07 2392.07,1422.07 2405.36,1422.07 
  2418.64,1422.07 2431.92,1422.07 2445.2,1422.07 2458.49,1422.07 2471.77,1422.07 2485.05,1422.07 2498.33,1422.07 2511.62,1422.07 2524.9,1422.07 2538.18,1422.07 
  2551.46,1422.07 2564.74,1422.07 2578.03,1422.07 2591.31,1422.07 2604.59,1422.07 2617.87,1422.07 2631.16,1422.07 2644.44,1422.07 2657.72,1422.07 2671,1422.07 
  2684.29,1422.07 2697.57,1422.07 2710.85,1422.07 2724.13,1422.07 2737.42,1422.07 2750.7,1422.07 2763.98,1422.07 2777.26,1422.07 2790.55,1422.07 2803.83,1422.07 
  2817.11,1422.07 2830.39,1422.07 2843.67,1422.07 2856.96,1422.07 2870.24,1422.07 2883.52,1422.07 2896.8,1422.07 2910.09,1422.07 2923.37,1422.07 2936.65,1422.07 
  2949.93,1422.07 2963.22,1422.07 2976.5,1422.07 2989.78,1422.07 3003.06,1422.07 3016.35,1422.07 3029.63,1422.07 3042.91,1422.07 3056.19,1422.07 3069.48,1422.07 
  
  "/>
<path clip-path="url(#clip280)" d="
M2505.15 251.026 L3054.67 251.026 L3054.67 95.5056 L2505.15 95.5056  Z
  " fill="#ffffff" fill-rule="evenodd" fill-opacity="1"/>
<polyline clip-path="url(#clip280)" style="stroke:#000000; stroke-linecap:butt; stroke-linejoin:round; stroke-width:4; stroke-opacity:1; fill:none" points="
  2505.15,251.026 3054.67,251.026 3054.67,95.5056 2505.15,95.5056 2505.15,251.026 
  "/>
<polyline clip-path="url(#clip280)" style="stroke:#009af9; stroke-linecap:butt; stroke-linejoin:round; stroke-width:4; stroke-opacity:1; fill:none" points="
  2537.84,147.346 2734.02,147.346 
  "/>
<path clip-path="url(#clip280)" d="M2788.96 131.2 L2788.96 135.76 Q2786.29 134.487 2783.93 133.862 Q2781.57 133.237 2779.37 133.237 Q2775.55 133.237 2773.47 134.718 Q2771.41 136.2 2771.41 138.931 Q2771.41 141.223 2772.78 142.403 Q2774.16 143.561 2778.01 144.278 L2780.83 144.857 Q2786.06 145.853 2788.54 148.376 Q2791.04 150.876 2791.04 155.089 Q2791.04 160.112 2787.66 162.704 Q2784.3 165.297 2777.8 165.297 Q2775.35 165.297 2772.57 164.741 Q2769.81 164.186 2766.85 163.098 L2766.85 158.283 Q2769.7 159.88 2772.43 160.69 Q2775.16 161.501 2777.8 161.501 Q2781.8 161.501 2783.98 159.927 Q2786.16 158.352 2786.16 155.436 Q2786.16 152.89 2784.58 151.454 Q2783.03 150.019 2779.47 149.302 L2776.62 148.746 Q2771.39 147.704 2769.05 145.482 Q2766.71 143.26 2766.71 139.302 Q2766.71 134.718 2769.93 132.079 Q2773.17 129.441 2778.84 129.441 Q2781.27 129.441 2783.79 129.88 Q2786.32 130.32 2788.96 131.2 Z" fill="#000000" fill-rule="evenodd" fill-opacity="1" /><path clip-path="url(#clip280)" d="M2802.27 160.737 L2802.27 174.487 L2797.98 174.487 L2797.98 138.7 L2802.27 138.7 L2802.27 142.635 Q2803.61 140.32 2805.65 139.209 Q2807.71 138.075 2810.55 138.075 Q2815.28 138.075 2818.22 141.825 Q2821.18 145.575 2821.18 151.686 Q2821.18 157.797 2818.22 161.547 Q2815.28 165.297 2810.55 165.297 Q2807.71 165.297 2805.65 164.186 Q2803.61 163.051 2802.27 160.737 M2816.76 151.686 Q2816.76 146.987 2814.81 144.325 Q2812.89 141.64 2809.51 141.64 Q2806.13 141.64 2804.19 144.325 Q2802.27 146.987 2802.27 151.686 Q2802.27 156.385 2804.19 159.07 Q2806.13 161.732 2809.51 161.732 Q2812.89 161.732 2814.81 159.07 Q2816.76 156.385 2816.76 151.686 Z" fill="#000000" fill-rule="evenodd" fill-opacity="1" /><path clip-path="url(#clip280)" d="M2850.41 150.598 L2850.41 152.681 L2830.83 152.681 Q2831.11 157.079 2833.47 159.394 Q2835.85 161.686 2840.09 161.686 Q2842.54 161.686 2844.84 161.084 Q2847.15 160.482 2849.42 159.278 L2849.42 163.306 Q2847.13 164.278 2844.72 164.788 Q2842.31 165.297 2839.84 165.297 Q2833.63 165.297 2830 161.686 Q2826.39 158.075 2826.39 151.917 Q2826.39 145.552 2829.81 141.825 Q2833.26 138.075 2839.09 138.075 Q2844.33 138.075 2847.36 141.454 Q2850.41 144.811 2850.41 150.598 M2846.16 149.348 Q2846.11 145.853 2844.19 143.769 Q2842.29 141.686 2839.14 141.686 Q2835.58 141.686 2833.42 143.7 Q2831.29 145.714 2830.97 149.371 L2846.16 149.348 Z" fill="#000000" fill-rule="evenodd" fill-opacity="1" /><path clip-path="url(#clip280)" d="M2876.06 139.695 L2876.06 143.677 Q2874.26 142.681 2872.43 142.195 Q2870.62 141.686 2868.77 141.686 Q2864.63 141.686 2862.34 144.325 Q2860.04 146.94 2860.04 151.686 Q2860.04 156.431 2862.34 159.07 Q2864.63 161.686 2868.77 161.686 Q2870.62 161.686 2872.43 161.2 Q2874.26 160.69 2876.06 159.695 L2876.06 163.63 Q2874.28 164.464 2872.36 164.88 Q2870.46 165.297 2868.31 165.297 Q2862.45 165.297 2859 161.616 Q2855.55 157.936 2855.55 151.686 Q2855.55 145.343 2859.03 141.709 Q2862.52 138.075 2868.59 138.075 Q2870.55 138.075 2872.43 138.491 Q2874.3 138.885 2876.06 139.695 Z" fill="#000000" fill-rule="evenodd" fill-opacity="1" /><path clip-path="url(#clip280)" d="M2887.68 131.339 L2887.68 138.7 L2896.46 138.7 L2896.46 142.01 L2887.68 142.01 L2887.68 156.084 Q2887.68 159.255 2888.54 160.158 Q2889.42 161.061 2892.08 161.061 L2896.46 161.061 L2896.46 164.626 L2892.08 164.626 Q2887.15 164.626 2885.28 162.797 Q2883.4 160.945 2883.4 156.084 L2883.4 142.01 L2880.28 142.01 L2880.28 138.7 L2883.4 138.7 L2883.4 131.339 L2887.68 131.339 Z" fill="#000000" fill-rule="evenodd" fill-opacity="1" /><path clip-path="url(#clip280)" d="M2917.08 142.681 Q2916.36 142.265 2915.51 142.079 Q2914.67 141.871 2913.65 141.871 Q2910.04 141.871 2908.1 144.232 Q2906.18 146.57 2906.18 150.968 L2906.18 164.626 L2901.9 164.626 L2901.9 138.7 L2906.18 138.7 L2906.18 142.728 Q2907.52 140.366 2909.67 139.232 Q2911.83 138.075 2914.9 138.075 Q2915.34 138.075 2915.88 138.144 Q2916.41 138.191 2917.06 138.306 L2917.08 142.681 Z" fill="#000000" fill-rule="evenodd" fill-opacity="1" /><path clip-path="url(#clip280)" d="M2921.11 154.394 L2921.11 138.7 L2925.37 138.7 L2925.37 154.232 Q2925.37 157.913 2926.8 159.764 Q2928.24 161.593 2931.11 161.593 Q2934.56 161.593 2936.55 159.394 Q2938.56 157.195 2938.56 153.399 L2938.56 138.7 L2942.82 138.7 L2942.82 164.626 L2938.56 164.626 L2938.56 160.644 Q2937.01 163.005 2934.95 164.163 Q2932.91 165.297 2930.21 165.297 Q2925.74 165.297 2923.42 162.519 Q2921.11 159.741 2921.11 154.394 M2931.83 138.075 L2931.83 138.075 Z" fill="#000000" fill-rule="evenodd" fill-opacity="1" /><path clip-path="url(#clip280)" d="M2971.78 143.677 Q2973.38 140.806 2975.6 139.441 Q2977.82 138.075 2980.83 138.075 Q2984.88 138.075 2987.08 140.922 Q2989.28 143.746 2989.28 148.977 L2989.28 164.626 L2985 164.626 L2985 149.116 Q2985 145.39 2983.68 143.584 Q2982.36 141.778 2979.65 141.778 Q2976.34 141.778 2974.42 143.978 Q2972.5 146.177 2972.5 149.973 L2972.5 164.626 L2968.21 164.626 L2968.21 149.116 Q2968.21 145.366 2966.9 143.584 Q2965.58 141.778 2962.82 141.778 Q2959.56 141.778 2957.64 144.001 Q2955.71 146.2 2955.71 149.973 L2955.71 164.626 L2951.43 164.626 L2951.43 138.7 L2955.71 138.7 L2955.71 142.728 Q2957.17 140.343 2959.21 139.209 Q2961.25 138.075 2964.05 138.075 Q2966.87 138.075 2968.84 139.51 Q2970.83 140.945 2971.78 143.677 Z" fill="#000000" fill-rule="evenodd" fill-opacity="1" /><polyline clip-path="url(#clip280)" style="stroke:#e26f46; stroke-linecap:butt; stroke-linejoin:round; stroke-width:4; stroke-opacity:1; fill:none" points="
  2537.84,199.186 2734.02,199.186 
  "/>
<path clip-path="url(#clip280)" d="M2766.71 181.906 L2786.57 181.906 L2786.57 185.841 L2771.39 185.841 L2771.39 196.026 L2785.09 196.026 L2785.09 199.961 L2771.39 199.961 L2771.39 216.466 L2766.71 216.466 L2766.71 181.906 Z" fill="#000000" fill-rule="evenodd" fill-opacity="1" /><path clip-path="url(#clip280)" d="M2790.35 190.54 L2794.6 190.54 L2794.6 216.466 L2790.35 216.466 L2790.35 190.54 M2790.35 180.447 L2794.6 180.447 L2794.6 185.841 L2790.35 185.841 L2790.35 180.447 Z" fill="#000000" fill-rule="evenodd" fill-opacity="1" /><path clip-path="url(#clip280)" d="M2807.73 183.179 L2807.73 190.54 L2816.5 190.54 L2816.5 193.85 L2807.73 193.85 L2807.73 207.924 Q2807.73 211.095 2808.59 211.998 Q2809.47 212.901 2812.13 212.901 L2816.5 212.901 L2816.5 216.466 L2812.13 216.466 Q2807.2 216.466 2805.32 214.637 Q2803.45 212.785 2803.45 207.924 L2803.45 193.85 L2800.32 193.85 L2800.32 190.54 L2803.45 190.54 L2803.45 183.179 L2807.73 183.179 Z" fill="#000000" fill-rule="evenodd" fill-opacity="1" /></svg>
